<?xml version="1.0" encoding="UTF-8"?>
<svg xmlns="http://www.w3.org/2000/svg" width="750" height="1050" viewBox="0 0 750 1050">

    <defs>
      <linearGradient id="bg" x1="0" y1="0" x2="1" y2="1">
        <stop offset="0" stop-color="#07091b"/>
        <stop offset="0.5" stop-color="#0b1030"/>
        <stop offset="1" stop-color="#050612"/>
      </linearGradient>
      <linearGradient id="rim" x1="0" y1="0" x2="1" y2="1">
        <stop offset="0" stop-color="#35f2ff"/>
        <stop offset="0.48" stop-color="#b54cff"/>
        <stop offset="1" stop-color="#ff3bd4"/>
      </linearGradient>
      <linearGradient id="face" x1="0" y1="0" x2="0" y2="1">
        <stop offset="0" stop-color="#1b2257"/>
        <stop offset="1" stop-color="#090b20"/>
      </linearGradient>
      <filter id="glow" x="-60%" y="-60%" width="220%" height="220%">
        <feGaussianBlur stdDeviation="7" result="b"/>
        <feMerge><feMergeNode in="b"/><feMergeNode in="SourceGraphic"/></feMerge>
      </filter>
      <filter id="softglow" x="-50%" y="-50%" width="200%" height="200%">
        <feGaussianBlur stdDeviation="2.5" result="b"/>
        <feMerge><feMergeNode in="b"/><feMergeNode in="SourceGraphic"/></feMerge>
      </filter>
      <pattern id="grid" width="40" height="40" patternUnits="userSpaceOnUse">
        <path d="M40 0H0V40" fill="none" stroke="#2d3970" stroke-width="1" opacity=".28"/>
        <circle cx="0" cy="0" r="1.4" fill="#6c7bce" opacity=".32"/>
      </pattern>
      <pattern id="scan" width="1" height="12" patternUnits="userSpaceOnUse">
        <rect width="1" height="1" y="0" fill="#fff" opacity=".035"/>
      </pattern>
    </defs>
<rect x="0" y="0" width="750" height="1050" rx="42" fill="url(#bg)"/>
<rect x="14" y="14" width="722" height="1022" rx="34" fill="none" stroke="url(#rim)" stroke-width="4" opacity=".9" filter="url(#softglow)"/>
<rect x="29" y="29" width="692" height="992" rx="25" fill="url(#grid)" opacity=".62"/>
<rect x="29" y="29" width="692" height="992" rx="25" fill="url(#scan)"/>
<path d="M60 86H210 M540 86H690 M60 964H210 M540 964H690" stroke="#ff3bd4" stroke-width="3" opacity=".8" filter="url(#softglow)"/>
<text x="375" y="77" text-anchor="middle" font-family="monospace" font-size="15" font-weight="700" letter-spacing="5" fill="#8fa4ff" opacity=".8">NEON // ARCADE</text>
<g transform="translate(78 92) rotate(0)">
      <text x="0" y="0" font-family="DejaVu Sans, Arial, sans-serif" font-size="150" font-weight="900" fill="#ff3bd4" text-anchor="middle">A</text>
      <text x="0" y="138" font-family="DejaVu Sans, Arial, sans-serif" font-size="125" fill="#ff3bd4" text-anchor="middle" filter="url(#softglow)">♥</text>
    </g><g transform="translate(672 958) rotate(180)">
      <text x="0" y="0" font-family="DejaVu Sans, Arial, sans-serif" font-size="150" font-weight="900" fill="#ff3bd4" text-anchor="middle">A</text>
      <text x="0" y="138" font-family="DejaVu Sans, Arial, sans-serif" font-size="125" fill="#ff3bd4" text-anchor="middle" filter="url(#softglow)">♥</text>
    </g>
        <g transform="translate(375 520)">
      <circle r="218" fill="#090c24" stroke="#ff3bd4" stroke-width="5" filter="url(#softglow)"/>
      <circle r="190" fill="none" stroke="#7c5cff" stroke-width="3" stroke-dasharray="8 12"/>
      <path d="M-150 155 L-108 58 L-55 88 L0 20 L55 88 L108 58 L150 155" fill="none" stroke="#ff3bd4" stroke-width="9" stroke-linecap="round" filter="url(#glow)"/>
      <path d="M-115 122 Q-98 48 0 30 Q98 48 115 122 L76 178 L-76 178 Z" fill="url(#face)" stroke="#ff3bd4" stroke-width="5"/>
      <path d="M-96 8 Q-74 -105 0 -140 Q74 -105 96 8 L68 58 Q0 78 -68 58 Z" fill="#10153d" stroke="#ff3bd4" stroke-width="6"/>
      <path d="M-78 -12 H78 L52 34 H-52 Z" fill="#060916" stroke="#7c5cff" stroke-width="4" filter="url(#softglow)"/>
      <path d="M-52 0 H-18 M18 0 H52" stroke="#dffcff" stroke-width="7" stroke-linecap="round"/>
      <path d="M-38 92 Q0 116 38 92" fill="none" stroke="#7c5cff" stroke-width="6" stroke-linecap="round"/>
      <text x="0" y="66" text-anchor="middle" font-family="monospace" font-size="76" font-weight="900" fill="#ff3bd4" filter="url(#glow)">A</text>
      <text x="0" y="-174" text-anchor="middle" font-family="monospace" font-size="20" font-weight="700" letter-spacing="5" fill="#dbe4ff">ACE // HEART</text>
      <text x="0" y="236" text-anchor="middle" font-family="monospace" font-size="14" letter-spacing="3" fill="#7f8bd0">ACE PLAYER • READY</text>
    </g>
    <text x="92" y="520" transform="rotate(-90 92 520)" text-anchor="middle" font-family="monospace" font-size="13" letter-spacing="4" fill="#ff3bd4" opacity=".8">HIGH SCORE</text>
    <text x="658" y="520" transform="rotate(90 658 520)" text-anchor="middle" font-family="monospace" font-size="13" letter-spacing="4" fill="#7c5cff" opacity=".8">LEVEL 01</text>
    <text x="375" y="1000" text-anchor="middle" font-family="monospace" font-size="12" letter-spacing="4" fill="#6f7bb5" opacity=".8">CLUBS // A</text>
</svg>