<?xml version="1.0" encoding="UTF-8"?>
<svg width="100%" height="100%" viewBox="0 0 750 1050" version="1.1" xmlns="http://www.w3.org/2000/svg" style="stroke-linejoin:round;stroke-linecap:round;">
<defs><linearGradient id="ms-gold" x1="0" y1="-140" x2="0" y2="140" gradientUnits="userSpaceOnUse"><stop offset="0" stop-color="#F6DB9A"/><stop offset="0.5" stop-color="#CFA24E"/><stop offset="1" stop-color="#7E5A22"/></linearGradient>
<linearGradient id="ms-gold-hi" x1="0" y1="-110" x2="0" y2="80" gradientUnits="userSpaceOnUse"><stop offset="0" stop-color="#FFF1C7"/><stop offset="0.6" stop-color="#F6DB9A"/><stop offset="1" stop-color="#CFA24E"/></linearGradient>
<linearGradient id="ms-gold-dk" x1="0" y1="-60" x2="0" y2="140" gradientUnits="userSpaceOnUse"><stop offset="0" stop-color="#CFA24E"/><stop offset="1" stop-color="#5A3F16"/></linearGradient>
<linearGradient id="ms-rim" x1="0" y1="0" x2="750" y2="1050" gradientUnits="userSpaceOnUse"><stop offset="0" stop-color="#F6DB9A"/><stop offset="0.35" stop-color="#7E5A22"/><stop offset="0.5" stop-color="#F6DB9A"/><stop offset="0.65" stop-color="#7E5A22"/><stop offset="1" stop-color="#F6DB9A"/></linearGradient>
<radialGradient id="ms-face" cx="375" cy="525" r="640" gradientUnits="userSpaceOnUse"><stop offset="0" stop-color="#1E283B"/><stop offset="0.6" stop-color="#121927"/><stop offset="1" stop-color="#0A0E17"/></radialGradient>
<linearGradient id="ms-panel-fill" x1="0" y1="70" x2="0" y2="980" gradientUnits="userSpaceOnUse"><stop offset="0" stop-color="#2C3549"/><stop offset="0.5" stop-color="#141A28"/><stop offset="1" stop-color="#2C3549"/></linearGradient>
<clipPath id="ms-top"><rect x="0" y="0" width="750" height="525.0"/></clipPath>
<clipPath id="ck-panel"><path d="M142 166C142 113.2 272.48 81.52 375 70C477.52 81.52 608 113.2 608 166L608 884C608 936.8 477.52 968.48 375 980C272.48 968.48 142 936.8 142 884Z"/></clipPath>
<clipPath id="ck-top"><rect x="0" y="0" width="750" height="525.0"/></clipPath>
<clipPath id="ck-robe"><path d="M146 525.0L146 452C152 400 299.0 370 373.0 360L445.0 360C519.0 370 598 400 604 452L604 525.0Z"/></clipPath>
<linearGradient id="ms-red" x1="0" y1="0" x2="0" y2="1"><stop offset="0" stop-color="#FF7A6E"/><stop offset="0.55" stop-color="#E2463E"/><stop offset="1" stop-color="#9E1F22"/></linearGradient>
<linearGradient id="ms-sheen" x1="0" y1="0" x2="750" y2="1050" gradientUnits="userSpaceOnUse"><stop offset="0.3" stop-color="#FFFFFF" stop-opacity="0.000"/><stop offset="0.48" stop-color="#FFFFFF" stop-opacity="0.060"/><stop offset="0.66" stop-color="#FFFFFF" stop-opacity="0.000"/></linearGradient><clipPath id="card"><rect width="750" height="1050" rx="37.5" ry="37.5"/></clipPath></defs>
<g clip-path="url(#card)"><rect width="750" height="1050" fill="url(#ms-face)"/>
<rect x="14" y="14" width="722" height="1022" rx="26" fill="none" stroke="url(#ms-rim)" stroke-width="3.2"/><rect x="22" y="22" width="706" height="1006" rx="19" fill="none" stroke="#CFA24E" stroke-width="1" stroke-opacity=".6"/><path d="M24 118A94 94 0 0 1 118 24" fill="none" stroke="#CFA24E" stroke-width="1.4" stroke-opacity=".55"/><path d="M40 30L50 40L40 50L30 40Z" fill="url(#ms-rim)"/><g transform="matrix(-1 0 0 1 750 0)"><path d="M24 118A94 94 0 0 1 118 24" fill="none" stroke="#CFA24E" stroke-width="1.4" stroke-opacity=".55"/><path d="M40 30L50 40L40 50L30 40Z" fill="url(#ms-rim)"/></g><g transform="rotate(180 375 525)"><path d="M24 118A94 94 0 0 1 118 24" fill="none" stroke="#CFA24E" stroke-width="1.4" stroke-opacity=".55"/><path d="M40 30L50 40L40 50L30 40Z" fill="url(#ms-rim)"/><g transform="matrix(-1 0 0 1 750 0)"><path d="M24 118A94 94 0 0 1 118 24" fill="none" stroke="#CFA24E" stroke-width="1.4" stroke-opacity=".55"/><path d="M40 30L50 40L40 50L30 40Z" fill="url(#ms-rim)"/></g></g><path d="M22 499.0L32 525.0L22 551.0" fill="none" stroke="#CFA24E" stroke-width="1.6"/><g transform="matrix(-1 0 0 1 750 0)"><path d="M22 499.0L32 525.0L22 551.0" fill="none" stroke="#CFA24E" stroke-width="1.6"/></g>
<g clip-path="url(#ck-panel)"><path d="M142 166C142 113.2 272.48 81.52 375 70C477.52 81.52 608 113.2 608 166L608 884C608 936.8 477.52 968.48 375 980C272.48 968.48 142 936.8 142 884Z" fill="url(#ms-panel-fill)"/><g clip-path="url(#ms-top)"><path d="M-20 1060 L-20 375 L-20 320.4 L-17.7 309.3 L-11.2 298.1 L-1.5 287.7 L10 280.4 L21.5 287.7 L31.2 298.1 L37.7 309.3 L40 320.4 L40 375 L40 375 L40 293.6 L40 283.6 L48.4 283.6 L48.4 293.6 L56.8 293.6 L56.8 283.6 L65.2 283.6 L65.2 293.6 L73.6 293.6 L73.6 283.6 L82 283.6 L82 293.6 L82 375 L82 375 L82 319.5 L124 319.5 L124 375 L124 375 L124 314.3 L141 272.3 L158 314.3 L158 375 L158 375 L158 333.6 L210 333.6 L210 375 L210 375 L210 274.2 L210 264.2 L216.8 264.2 L216.8 274.2 L223.6 274.2 L223.6 264.2 L230.4 264.2 L230.4 274.2 L237.2 274.2 L237.2 264.2 L244 264.2 L244 274.2 L244 375 L244 375 L244 266.6 L286 266.6 L286 375 L286 375 L286 324 L356 324 L356 375 L356 375 L356 332.5 L408 332.5 L408 375 L408 375 L408 322.2 L443 280.2 L478 322.2 L478 375 L478 375 L478 325.4 L488.2 325.4 L495 235.4 L501.8 325.4 L512 325.4 L512 375 L512 375 L512 358.5 L530 358.5 L542 268.5 L554 358.5 L572 358.5 L572 375 L572 375 L572 356.6 L587.6 356.6 L598 266.6 L608.4 356.6 L624 356.6 L624 375 L624 375 L624 279.1 L624 269.1 L634.4 269.1 L634.4 279.1 L644.8 279.1 L644.8 269.1 L655.2 269.1 L655.2 279.1 L665.6 279.1 L665.6 269.1 L676 269.1 L676 279.1 L676 375 L676 375 L676 348.7 L691.6 348.7 L702 258.7 L712.4 348.7 L728 348.7 L728 375 L728 375 L728 315.6 L738.2 315.6 L745 225.6 L751.8 315.6 L762 315.6 L762 375 L762 375 L762 314.9 L762 304.9 L774 304.9 L774 314.9 L786 314.9 L786 304.9 L798 304.9 L798 314.9 L810 314.9 L810 304.9 L822 304.9 L822 314.9 L822 375 L770 1060Z" fill="#0B101B"/>
<path d="M-20 1060 L-20 375 L-20 320.4 L-17.7 309.3 L-11.2 298.1 L-1.5 287.7 L10 280.4 L21.5 287.7 L31.2 298.1 L37.7 309.3 L40 320.4 L40 375 L40 375 L40 293.6 L40 283.6 L48.4 283.6 L48.4 293.6 L56.8 293.6 L56.8 283.6 L65.2 283.6 L65.2 293.6 L73.6 293.6 L73.6 283.6 L82 283.6 L82 293.6 L82 375 L82 375 L82 319.5 L124 319.5 L124 375 L124 375 L124 314.3 L141 272.3 L158 314.3 L158 375 L158 375 L158 333.6 L210 333.6 L210 375 L210 375 L210 274.2 L210 264.2 L216.8 264.2 L216.8 274.2 L223.6 274.2 L223.6 264.2 L230.4 264.2 L230.4 274.2 L237.2 274.2 L237.2 264.2 L244 264.2 L244 274.2 L244 375 L244 375 L244 266.6 L286 266.6 L286 375 L286 375 L286 324 L356 324 L356 375 L356 375 L356 332.5 L408 332.5 L408 375 L408 375 L408 322.2 L443 280.2 L478 322.2 L478 375 L478 375 L478 325.4 L488.2 325.4 L495 235.4 L501.8 325.4 L512 325.4 L512 375 L512 375 L512 358.5 L530 358.5 L542 268.5 L554 358.5 L572 358.5 L572 375 L572 375 L572 356.6 L587.6 356.6 L598 266.6 L608.4 356.6 L624 356.6 L624 375 L624 375 L624 279.1 L624 269.1 L634.4 269.1 L634.4 279.1 L644.8 279.1 L644.8 269.1 L655.2 269.1 L655.2 279.1 L665.6 279.1 L665.6 269.1 L676 269.1 L676 279.1 L676 375 L676 375 L676 348.7 L691.6 348.7 L702 258.7 L712.4 348.7 L728 348.7 L728 375 L728 375 L728 315.6 L738.2 315.6 L745 225.6 L751.8 315.6 L762 315.6 L762 375 L762 375 L762 314.9 L762 304.9 L774 304.9 L774 314.9 L786 314.9 L786 304.9 L798 304.9 L798 314.9 L810 314.9 L810 304.9 L822 304.9 L822 314.9 L822 375 L770 1060Z" fill="none" stroke="#2B3A57" stroke-width="1.6" stroke-opacity=".55"/>
<path d="M-12 338h5v8h-5ZM24 338h5v8h-5ZM24 356h5v8h-5ZM48 363h5v8h-5ZM60 363h5v8h-5ZM144 364h5v8h-5ZM230 326h5v8h-5ZM264 318h5v8h-5ZM276 336h5v8h-5ZM306 357h5v8h-5ZM428 354h5v8h-5ZM452 354h5v8h-5ZM632 313h5v8h-5ZM656 349h5v8h-5ZM748 319h5v8h-5ZM748 355h5v8h-5Z" fill="#FFB547" fill-opacity=".55"/></g><path d="M366.26 373.07l-9 39.64M467.94 480.53l-9 42.54M217.76 170.52l-9 36.01M323.8 508.15l-9 42.03M360.26 229.95l-9 31M422.9 490.36l-9 29.68M352.76 226.84l-9 39.41M260.47 99.7l-9 40.88M285.05 364.43l-9 45.96M413.15 485.1l-9 43.66M171.47 181.64l-9 40.57M364.89 72.15l-9 44.07M444.85 267.77l-9 37.47M221.61 320.27l-9 29.13M451.42 498.52l-9 30.76M265.61 331.91l-9 45.27M220.8 248.07l-9 39.31M218.67 101.44l-9 42.45M431.97 334l-9 38.01M189.93 288.65l-9 36.72M381.79 144.22l-9 27.5M382.45 386.6l-9 40.69M578.6 238.97l-9 34.6M295.99 299.81l-9 40.73M544.63 112.11l-9 38.66M499.45 411.06l-9 35.48M175.28 216.75l-9 39.12M504.74 169.07l-9 33.15M313.2 93.73l-9 47.39M306.01 270.78l-9 47.32M506.33 195l-9 46.7M526.67 327.02l-9 35.73M537.59 489.2l-9 40.76M291.44 466.77l-9 40.5M575.5 441.24l-9 41.22M559.49 270.82l-9 39.34" stroke="#AFC3E6" stroke-width="1.3" stroke-opacity="0.14"/><g transform="rotate(180 375 525)"><g clip-path="url(#ms-top)"><path d="M-20 1060 L-20 375 L-20 320.4 L-17.7 309.3 L-11.2 298.1 L-1.5 287.7 L10 280.4 L21.5 287.7 L31.2 298.1 L37.7 309.3 L40 320.4 L40 375 L40 375 L40 293.6 L40 283.6 L48.4 283.6 L48.4 293.6 L56.8 293.6 L56.8 283.6 L65.2 283.6 L65.2 293.6 L73.6 293.6 L73.6 283.6 L82 283.6 L82 293.6 L82 375 L82 375 L82 319.5 L124 319.5 L124 375 L124 375 L124 314.3 L141 272.3 L158 314.3 L158 375 L158 375 L158 333.6 L210 333.6 L210 375 L210 375 L210 274.2 L210 264.2 L216.8 264.2 L216.8 274.2 L223.6 274.2 L223.6 264.2 L230.4 264.2 L230.4 274.2 L237.2 274.2 L237.2 264.2 L244 264.2 L244 274.2 L244 375 L244 375 L244 266.6 L286 266.6 L286 375 L286 375 L286 324 L356 324 L356 375 L356 375 L356 332.5 L408 332.5 L408 375 L408 375 L408 322.2 L443 280.2 L478 322.2 L478 375 L478 375 L478 325.4 L488.2 325.4 L495 235.4 L501.8 325.4 L512 325.4 L512 375 L512 375 L512 358.5 L530 358.5 L542 268.5 L554 358.5 L572 358.5 L572 375 L572 375 L572 356.6 L587.6 356.6 L598 266.6 L608.4 356.6 L624 356.6 L624 375 L624 375 L624 279.1 L624 269.1 L634.4 269.1 L634.4 279.1 L644.8 279.1 L644.8 269.1 L655.2 269.1 L655.2 279.1 L665.6 279.1 L665.6 269.1 L676 269.1 L676 279.1 L676 375 L676 375 L676 348.7 L691.6 348.7 L702 258.7 L712.4 348.7 L728 348.7 L728 375 L728 375 L728 315.6 L738.2 315.6 L745 225.6 L751.8 315.6 L762 315.6 L762 375 L762 375 L762 314.9 L762 304.9 L774 304.9 L774 314.9 L786 314.9 L786 304.9 L798 304.9 L798 314.9 L810 314.9 L810 304.9 L822 304.9 L822 314.9 L822 375 L770 1060Z" fill="#0B101B"/>
<path d="M-20 1060 L-20 375 L-20 320.4 L-17.7 309.3 L-11.2 298.1 L-1.5 287.7 L10 280.4 L21.5 287.7 L31.2 298.1 L37.7 309.3 L40 320.4 L40 375 L40 375 L40 293.6 L40 283.6 L48.4 283.6 L48.4 293.6 L56.8 293.6 L56.8 283.6 L65.2 283.6 L65.2 293.6 L73.6 293.6 L73.6 283.6 L82 283.6 L82 293.6 L82 375 L82 375 L82 319.5 L124 319.5 L124 375 L124 375 L124 314.3 L141 272.3 L158 314.3 L158 375 L158 375 L158 333.6 L210 333.6 L210 375 L210 375 L210 274.2 L210 264.2 L216.8 264.2 L216.8 274.2 L223.6 274.2 L223.6 264.2 L230.4 264.2 L230.4 274.2 L237.2 274.2 L237.2 264.2 L244 264.2 L244 274.2 L244 375 L244 375 L244 266.6 L286 266.6 L286 375 L286 375 L286 324 L356 324 L356 375 L356 375 L356 332.5 L408 332.5 L408 375 L408 375 L408 322.2 L443 280.2 L478 322.2 L478 375 L478 375 L478 325.4 L488.2 325.4 L495 235.4 L501.8 325.4 L512 325.4 L512 375 L512 375 L512 358.5 L530 358.5 L542 268.5 L554 358.5 L572 358.5 L572 375 L572 375 L572 356.6 L587.6 356.6 L598 266.6 L608.4 356.6 L624 356.6 L624 375 L624 375 L624 279.1 L624 269.1 L634.4 269.1 L634.4 279.1 L644.8 279.1 L644.8 269.1 L655.2 269.1 L655.2 279.1 L665.6 279.1 L665.6 269.1 L676 269.1 L676 279.1 L676 375 L676 375 L676 348.7 L691.6 348.7 L702 258.7 L712.4 348.7 L728 348.7 L728 375 L728 375 L728 315.6 L738.2 315.6 L745 225.6 L751.8 315.6 L762 315.6 L762 375 L762 375 L762 314.9 L762 304.9 L774 304.9 L774 314.9 L786 314.9 L786 304.9 L798 304.9 L798 314.9 L810 314.9 L810 304.9 L822 304.9 L822 314.9 L822 375 L770 1060Z" fill="none" stroke="#2B3A57" stroke-width="1.6" stroke-opacity=".55"/>
<path d="M-12 338h5v8h-5ZM24 338h5v8h-5ZM24 356h5v8h-5ZM48 363h5v8h-5ZM60 363h5v8h-5ZM144 364h5v8h-5ZM230 326h5v8h-5ZM264 318h5v8h-5ZM276 336h5v8h-5ZM306 357h5v8h-5ZM428 354h5v8h-5ZM452 354h5v8h-5ZM632 313h5v8h-5ZM656 349h5v8h-5ZM748 319h5v8h-5ZM748 355h5v8h-5Z" fill="#FFB547" fill-opacity=".55"/></g><path d="M366.26 373.07l-9 39.64M467.94 480.53l-9 42.54M217.76 170.52l-9 36.01M323.8 508.15l-9 42.03M360.26 229.95l-9 31M422.9 490.36l-9 29.68M352.76 226.84l-9 39.41M260.47 99.7l-9 40.88M285.05 364.43l-9 45.96M413.15 485.1l-9 43.66M171.47 181.64l-9 40.57M364.89 72.15l-9 44.07M444.85 267.77l-9 37.47M221.61 320.27l-9 29.13M451.42 498.52l-9 30.76M265.61 331.91l-9 45.27M220.8 248.07l-9 39.31M218.67 101.44l-9 42.45M431.97 334l-9 38.01M189.93 288.65l-9 36.72M381.79 144.22l-9 27.5M382.45 386.6l-9 40.69M578.6 238.97l-9 34.6M295.99 299.81l-9 40.73M544.63 112.11l-9 38.66M499.45 411.06l-9 35.48M175.28 216.75l-9 39.12M504.74 169.07l-9 33.15M313.2 93.73l-9 47.39M306.01 270.78l-9 47.32M506.33 195l-9 46.7M526.67 327.02l-9 35.73M537.59 489.2l-9 40.76M291.44 466.77l-9 40.5M575.5 441.24l-9 41.22M559.49 270.82l-9 39.34" stroke="#AFC3E6" stroke-width="1.3" stroke-opacity="0.14"/></g><g clip-path="url(#ck-top)"><g transform="translate(409 525) scale(1.1) translate(-409 -525)"><path d="M146 525.0L146 452C152 400 299.0 370 373.0 360L445.0 360C519.0 370 598 400 604 452L604 525.0Z" fill="#8E1F2A" stroke="#05070C" stroke-width="3" /><g clip-path="url(#ck-robe)"><path d="M128 392a14 14 0 0 0 28 0M156 392a14 14 0 0 0 28 0M184 392a14 14 0 0 0 28 0M212 392a14 14 0 0 0 28 0M240 392a14 14 0 0 0 28 0M268 392a14 14 0 0 0 28 0M296 392a14 14 0 0 0 28 0M324 392a14 14 0 0 0 28 0M352 392a14 14 0 0 0 28 0M380 392a14 14 0 0 0 28 0M408 392a14 14 0 0 0 28 0M436 392a14 14 0 0 0 28 0M464 392a14 14 0 0 0 28 0M492 392a14 14 0 0 0 28 0M520 392a14 14 0 0 0 28 0M548 392a14 14 0 0 0 28 0M576 392a14 14 0 0 0 28 0M604 392a14 14 0 0 0 28 0M142 408a14 14 0 0 0 28 0M170 408a14 14 0 0 0 28 0M198 408a14 14 0 0 0 28 0M226 408a14 14 0 0 0 28 0M254 408a14 14 0 0 0 28 0M282 408a14 14 0 0 0 28 0M310 408a14 14 0 0 0 28 0M338 408a14 14 0 0 0 28 0M366 408a14 14 0 0 0 28 0M394 408a14 14 0 0 0 28 0M422 408a14 14 0 0 0 28 0M450 408a14 14 0 0 0 28 0M478 408a14 14 0 0 0 28 0M506 408a14 14 0 0 0 28 0M534 408a14 14 0 0 0 28 0M562 408a14 14 0 0 0 28 0M590 408a14 14 0 0 0 28 0M128 424a14 14 0 0 0 28 0M156 424a14 14 0 0 0 28 0M184 424a14 14 0 0 0 28 0M212 424a14 14 0 0 0 28 0M240 424a14 14 0 0 0 28 0M268 424a14 14 0 0 0 28 0M296 424a14 14 0 0 0 28 0M324 424a14 14 0 0 0 28 0M352 424a14 14 0 0 0 28 0M380 424a14 14 0 0 0 28 0M408 424a14 14 0 0 0 28 0M436 424a14 14 0 0 0 28 0M464 424a14 14 0 0 0 28 0M492 424a14 14 0 0 0 28 0M520 424a14 14 0 0 0 28 0M548 424a14 14 0 0 0 28 0M576 424a14 14 0 0 0 28 0M604 424a14 14 0 0 0 28 0M142 440a14 14 0 0 0 28 0M170 440a14 14 0 0 0 28 0M198 440a14 14 0 0 0 28 0M226 440a14 14 0 0 0 28 0M254 440a14 14 0 0 0 28 0M282 440a14 14 0 0 0 28 0M310 440a14 14 0 0 0 28 0M338 440a14 14 0 0 0 28 0M366 440a14 14 0 0 0 28 0M394 440a14 14 0 0 0 28 0M422 440a14 14 0 0 0 28 0M450 440a14 14 0 0 0 28 0M478 440a14 14 0 0 0 28 0M506 440a14 14 0 0 0 28 0M534 440a14 14 0 0 0 28 0M562 440a14 14 0 0 0 28 0M590 440a14 14 0 0 0 28 0M128 456a14 14 0 0 0 28 0M156 456a14 14 0 0 0 28 0M184 456a14 14 0 0 0 28 0M212 456a14 14 0 0 0 28 0M240 456a14 14 0 0 0 28 0M268 456a14 14 0 0 0 28 0M296 456a14 14 0 0 0 28 0M324 456a14 14 0 0 0 28 0M352 456a14 14 0 0 0 28 0M380 456a14 14 0 0 0 28 0M408 456a14 14 0 0 0 28 0M436 456a14 14 0 0 0 28 0M464 456a14 14 0 0 0 28 0M492 456a14 14 0 0 0 28 0M520 456a14 14 0 0 0 28 0M548 456a14 14 0 0 0 28 0M576 456a14 14 0 0 0 28 0M604 456a14 14 0 0 0 28 0M142 472a14 14 0 0 0 28 0M170 472a14 14 0 0 0 28 0M198 472a14 14 0 0 0 28 0M226 472a14 14 0 0 0 28 0M254 472a14 14 0 0 0 28 0M282 472a14 14 0 0 0 28 0M310 472a14 14 0 0 0 28 0M338 472a14 14 0 0 0 28 0M366 472a14 14 0 0 0 28 0M394 472a14 14 0 0 0 28 0M422 472a14 14 0 0 0 28 0M450 472a14 14 0 0 0 28 0M478 472a14 14 0 0 0 28 0M506 472a14 14 0 0 0 28 0M534 472a14 14 0 0 0 28 0M562 472a14 14 0 0 0 28 0M590 472a14 14 0 0 0 28 0M128 488a14 14 0 0 0 28 0M156 488a14 14 0 0 0 28 0M184 488a14 14 0 0 0 28 0M212 488a14 14 0 0 0 28 0M240 488a14 14 0 0 0 28 0M268 488a14 14 0 0 0 28 0M296 488a14 14 0 0 0 28 0M324 488a14 14 0 0 0 28 0M352 488a14 14 0 0 0 28 0M380 488a14 14 0 0 0 28 0M408 488a14 14 0 0 0 28 0M436 488a14 14 0 0 0 28 0M464 488a14 14 0 0 0 28 0M492 488a14 14 0 0 0 28 0M520 488a14 14 0 0 0 28 0M548 488a14 14 0 0 0 28 0M576 488a14 14 0 0 0 28 0M604 488a14 14 0 0 0 28 0M142 504a14 14 0 0 0 28 0M170 504a14 14 0 0 0 28 0M198 504a14 14 0 0 0 28 0M226 504a14 14 0 0 0 28 0M254 504a14 14 0 0 0 28 0M282 504a14 14 0 0 0 28 0M310 504a14 14 0 0 0 28 0M338 504a14 14 0 0 0 28 0M366 504a14 14 0 0 0 28 0M394 504a14 14 0 0 0 28 0M422 504a14 14 0 0 0 28 0M450 504a14 14 0 0 0 28 0M478 504a14 14 0 0 0 28 0M506 504a14 14 0 0 0 28 0M534 504a14 14 0 0 0 28 0M562 504a14 14 0 0 0 28 0M590 504a14 14 0 0 0 28 0M128 520a14 14 0 0 0 28 0M156 520a14 14 0 0 0 28 0M184 520a14 14 0 0 0 28 0M212 520a14 14 0 0 0 28 0M240 520a14 14 0 0 0 28 0M268 520a14 14 0 0 0 28 0M296 520a14 14 0 0 0 28 0M324 520a14 14 0 0 0 28 0M352 520a14 14 0 0 0 28 0M380 520a14 14 0 0 0 28 0M408 520a14 14 0 0 0 28 0M436 520a14 14 0 0 0 28 0M464 520a14 14 0 0 0 28 0M492 520a14 14 0 0 0 28 0M520 520a14 14 0 0 0 28 0M548 520a14 14 0 0 0 28 0M576 520a14 14 0 0 0 28 0M604 520a14 14 0 0 0 28 0M142 536a14 14 0 0 0 28 0M170 536a14 14 0 0 0 28 0M198 536a14 14 0 0 0 28 0M226 536a14 14 0 0 0 28 0M254 536a14 14 0 0 0 28 0M282 536a14 14 0 0 0 28 0M310 536a14 14 0 0 0 28 0M338 536a14 14 0 0 0 28 0M366 536a14 14 0 0 0 28 0M394 536a14 14 0 0 0 28 0M422 536a14 14 0 0 0 28 0M450 536a14 14 0 0 0 28 0M478 536a14 14 0 0 0 28 0M506 536a14 14 0 0 0 28 0M534 536a14 14 0 0 0 28 0M562 536a14 14 0 0 0 28 0M590 536a14 14 0 0 0 28 0" fill="none" stroke="#5E121B" stroke-width="2.2" stroke-opacity="0.9"/></g><path d="M297.0 386C249.0 364 154 388 146 426L146 525.0L283.0 525.0C291.0 492 299.0 442 297.0 386Z" fill="#3A4560" stroke="#05070C" stroke-width="3" /><path d="M279.0 402C283.0 462 275.0 492 275.0 525.0M249.0 408C253.0 462 245.0 492 245.0 525.0M219.0 414C223.0 462 215.0 492 215.0 525.0" fill="none" stroke="#232B40" stroke-width="7"/><path d="M279.0 402C283.0 462 275.0 492 275.0 525.0M249.0 408C253.0 462 245.0 492 245.0 525.0M219.0 414C223.0 462 215.0 492 215.0 525.0" fill="none" stroke="#E9ECF2" stroke-width="2" stroke-opacity="0.8"/><path d="M297.0 386C291.0 442 291.0 492 283.0 525.0" fill="none" stroke="#CFA24E" stroke-width="5"/><path d="M521.0 386C569.0 364 596 388 604 426L604 525.0L535.0 525.0C527.0 492 519.0 442 521.0 386Z" fill="#3A4560" stroke="#05070C" stroke-width="3" /><path d="M539.0 402C535.0 462 543.0 492 543.0 525.0M569.0 408C565.0 462 573.0 492 573.0 525.0M599.0 414C595.0 462 603.0 492 603.0 525.0" fill="none" stroke="#232B40" stroke-width="7"/><path d="M539.0 402C535.0 462 543.0 492 543.0 525.0M569.0 408C565.0 462 573.0 492 573.0 525.0M599.0 414C595.0 462 603.0 492 603.0 525.0" fill="none" stroke="#E9ECF2" stroke-width="2" stroke-opacity="0.8"/><path d="M521.0 386C527.0 442 527.0 492 535.0 525.0" fill="none" stroke="#CFA24E" stroke-width="5"/><path d="M367.0 362L451.0 362L475.0 525.0L343.0 525.0Z" fill="#5E121B" stroke="#05070C" stroke-width="3" /><path d="M395.0 382H423.0L429.0 525.0H389.0Z" fill="#CFA24E" stroke="#05070C" stroke-width="2.2" /><path d="M409.0 403l8 9l-8 9l-8-9Z" fill="#E2463E" stroke="#05070C" stroke-width="1.4"/><path d="M409.0 433l8 9l-8 9l-8-9Z" fill="#E2463E" stroke="#05070C" stroke-width="1.4"/><path d="M409.0 463l8 9l-8 9l-8-9Z" fill="#E2463E" stroke="#05070C" stroke-width="1.4"/><path d="M409.0 493l8 9l-8 9l-8-9Z" fill="#E2463E" stroke="#05070C" stroke-width="1.4"/><path d="M367.0 362L343.0 525.0" fill="none" stroke="#CFA24E" stroke-width="4"/><path d="M451.0 362L475.0 525.0" fill="none" stroke="#CFA24E" stroke-width="4"/><path d="M291.0 394C319.0 358 359.0 352 409.0 358C459.0 352 499.0 358 527.0 394C489.0 390 449.0 388 409.0 396C369.0 388 329.0 390 291.0 394Z" fill="#E9ECF2" stroke="#05070C" stroke-width="3" /><path d="M313.0 372l3 8l-3 5l-3-5Z" fill="#05070C"/><path d="M337.0 378l3 8l-3 5l-3-5Z" fill="#05070C"/><path d="M361.0 372l3 8l-3 5l-3-5Z" fill="#05070C"/><path d="M385.0 378l3 8l-3 5l-3-5Z" fill="#05070C"/><path d="M409.0 372l3 8l-3 5l-3-5Z" fill="#05070C"/><path d="M433.0 378l3 8l-3 5l-3-5Z" fill="#05070C"/><path d="M457.0 372l3 8l-3 5l-3-5Z" fill="#05070C"/><path d="M481.0 378l3 8l-3 5l-3-5Z" fill="#05070C"/><path d="M505.0 372l3 8l-3 5l-3-5Z" fill="#05070C"/><path d="M518.0 432L518.0 138L527.0 112L536.0 138L536.0 432Z" fill="#DCE3EE" stroke="#05070C" stroke-width="3" /><path d="M527.0 124V428" fill="none" stroke="#7C889C" stroke-width="2"/><path d="M487.0 424L567.0 424L563.0 436L491.0 436Z" fill="#CFA24E" stroke="#05070C" stroke-width="2.6" /><path d="M520.0 436H534.0V498H520.0Z" fill="#7E5A22" stroke="#05070C" stroke-width="2" /><path d="M516 504A11 11 0 1 1 538 504A11 11 0 1 1 516 504Z" fill="#CFA24E" stroke="#05070C" stroke-width="2.4" /><path d="M357.0 232C339.0 272 339.0 332 349.0 358L469.0 358C479.0 332 479.0 272 461.0 232Z" fill="#D7DCE4" stroke="#05070C" stroke-width="3" /><path d="M355.0 252C347.0 292 349.0 322 355.0 346M349.0 256C341.0 292 344.0 322 351.0 346M463.0 252C471.0 292 469.0 322 463.0 346M469.0 256C477.0 292 474.0 322 467.0 346" fill="none" stroke="#9AA6BA" stroke-width="1.6" stroke-opacity="0.45"/><path d="M389.0 302L387.0 366L431.0 366L429.0 302Z" fill="#C48C62" stroke="#05070C" stroke-width="3" /><path d="M361.0 240C361.0 184 457.0 184 457.0 240C457.0 288 437.0 326 409.0 330C381.0 326 361.0 288 361.0 240Z" fill="#E6B48A" stroke="#05070C" stroke-width="3" /><path d="M352 256A8 13 0 1 1 368 256A8 13 0 1 1 352 256Z" fill="#C48C62" stroke="#05070C" stroke-width="2" /><path d="M450 256A8 13 0 1 1 466 256A8 13 0 1 1 450 256Z" fill="#C48C62" stroke="#05070C" stroke-width="2" /><path d="M377.0 250C383.0 242 395.0 242 401.0 250C395.0 256 383.0 256 377.0 250Z" fill="#FFFFFF" stroke="#05070C" stroke-width="1.6" /><circle cx="388.0" cy="249.5" r="5.2" fill="#4A3A1E"/><circle cx="388.0" cy="249.5" r="2.4" fill="#05070C"/><circle cx="389.8" cy="247.6" r="1.3" fill="#FFFFFF"/><path d="M376.0 251C383.0 241 395.0 241 402.0 251" fill="none" stroke="#05070C" stroke-width="2.4"/><path d="M375.0 240Q389.0 230 403.0 236" fill="none" stroke="#D7DCE4" stroke-width="4.4"/><path d="M417.0 250C423.0 242 435.0 242 441.0 250C435.0 256 423.0 256 417.0 250Z" fill="#FFFFFF" stroke="#05070C" stroke-width="1.6" /><circle cx="428.0" cy="249.5" r="5.2" fill="#4A3A1E"/><circle cx="428.0" cy="249.5" r="2.4" fill="#05070C"/><circle cx="429.8" cy="247.6" r="1.3" fill="#FFFFFF"/><path d="M416.0 251C423.0 241 435.0 241 442.0 251" fill="none" stroke="#05070C" stroke-width="2.4"/><path d="M415.0 236Q429.0 230 443.0 240" fill="none" stroke="#D7DCE4" stroke-width="4.4"/><path d="M411.0 256C410.0 268 402.0 276 403.0 282C407.0 286 413.0 285 417.0 281" fill="none" stroke="#05070C" stroke-width="2.2"/><path d="M361.0 256C355.0 322 375.0 386 409.0 396C443.0 386 463.0 322 457.0 256C449.0 284 439.0 294 427.0 296C419.0 308 399.0 308 391.0 296C379.0 294 369.0 284 361.0 256Z" fill="#D7DCE4" stroke="#05070C" stroke-width="3" /><path d="M379.0 318C375.0 342 385.0 362 391.0 384M394.0 318C390.0 342 398.5 362 400.0 384M409.0 318C405.0 342 412.0 362 409.0 384M424.0 318C420.0 342 425.5 362 418.0 384M439.0 318C435.0 342 439.0 362 427.0 384" fill="none" stroke="#9AA6BA" stroke-width="1.6" stroke-opacity="0.5"/><path d="M409.0 290C397.0 284 379.0 286 369.0 300C381.0 296 397.0 300 409.0 296C421.0 300 437.0 296 449.0 300C439.0 286 421.0 284 409.0 290Z" fill="#D7DCE4" stroke="#05070C" stroke-width="2" /><path d="M401.0 306Q409.0 310 417.0 306" fill="none" stroke="#05070C" stroke-width="2"/><path d="M359.0 240C359.0 192 459.0 192 459.0 240C449.0 218 429.0 210 409.0 210C389.0 210 369.0 218 359.0 240Z" fill="#D7DCE4" stroke="#05070C" stroke-width="2.4" /><path d="M354.5 192Q343.8 164.7 322 143.8Q326.1 174.9 347.5 196Z" fill="#CFA24E" stroke="#05070C" stroke-width="1.8" /><path d="M353.9 191.2Q338.6 169.1 314.2 155.9Q324 183.3 348.1 196.8Z" fill="#F6DB9A" stroke="#05070C" stroke-width="1.8" /><path d="M353.1 190.6Q335.1 174.2 310.3 168.6Q324.3 191.5 348.9 197.4Z" fill="#CFA24E" stroke="#05070C" stroke-width="1.8" /><path d="M352.2 190.2Q333.1 179.4 310.1 180.7Q326.8 198.8 349.8 197.8Z" fill="#F6DB9A" stroke="#05070C" stroke-width="1.8" /><path d="M351.3 190Q332.6 184.3 313.1 191.3Q331.2 204.6 350.7 198Z" fill="#CFA24E" stroke="#05070C" stroke-width="1.8" /><path d="M470.5 196Q488.8 173.1 496 143.8Q471.1 162.9 463.5 192Z" fill="#CFA24E" stroke="#05070C" stroke-width="1.8" /><path d="M469.9 196.8Q491.5 180.8 503.8 155.9Q476.8 166.6 464.1 191.2Z" fill="#F6DB9A" stroke="#05070C" stroke-width="1.8" /><path d="M469.1 197.4Q491.8 188.4 507.7 168.6Q481 171.1 464.9 190.6Z" fill="#CFA24E" stroke="#05070C" stroke-width="1.8" /><path d="M468.2 197.8Q490 195.3 507.9 180.7Q483.7 175.9 465.8 190.2Z" fill="#F6DB9A" stroke="#05070C" stroke-width="1.8" /><path d="M467.3 198Q486.5 201.1 504.9 191.3Q485.1 180.7 466.7 190Z" fill="#CFA24E" stroke="#05070C" stroke-width="1.8" /><path d="M351.0 216L343.0 148L371.0 180L387.0 128L409.0 170L431.0 128L447.0 180L475.0 148L467.0 216Z" fill="#CFA24E" stroke="#05070C" stroke-width="3" /><path d="M349.0 194H469.0V218H349.0Z" fill="#7E5A22" stroke="#05070C" stroke-width="3" /><circle cx="369" cy="206" r="6" fill="#E2463E" stroke="#05070C" stroke-width="1.6"/><circle cx="389" cy="206" r="6" fill="#E9ECF2" stroke="#05070C" stroke-width="1.6"/><circle cx="409" cy="206" r="6" fill="#E2463E" stroke="#05070C" stroke-width="1.6"/><circle cx="429" cy="206" r="6" fill="#E9ECF2" stroke="#05070C" stroke-width="1.6"/><circle cx="449" cy="206" r="6" fill="#E2463E" stroke="#05070C" stroke-width="1.6"/><circle cx="343.0" cy="148" r="6" fill="#E9ECF2" stroke="#05070C" stroke-width="1.6"/><circle cx="387.0" cy="128" r="6" fill="#E9ECF2" stroke="#05070C" stroke-width="1.6"/><circle cx="431.0" cy="128" r="6" fill="#E9ECF2" stroke="#05070C" stroke-width="1.6"/><circle cx="475.0" cy="148" r="6" fill="#E9ECF2" stroke="#05070C" stroke-width="1.6"/><path d="M409.0 170l0 -30" stroke="#05070C" stroke-width="2.5"/><path d="M399.0 146h20M409.0 136v20" stroke="#7E5A22" stroke-width="5"/><path d="M503.0 474L551.0 474L555.0 492L499.0 492Z" fill="#E9ECF2" stroke="#05070C" stroke-width="2.4" /><path d="M510.0 442C519.0 434 537.0 434 545.0 444C549.0 458 547.0 474 537.0 478C525.0 482 511.0 476 508.0 464Z" fill="#E6B48A" stroke="#05070C" stroke-width="2.6" /><path d="M515.0 450H541.0M515.0 458H541.0M515.0 466H541.0" fill="none" stroke="#C48C62" stroke-width="1.8"/></g></g><path transform="translate(204 148) scale(0.7400)" d="M0 44C-30 22 -50 4 -50 -18C-50 -36 -37 -48 -22 -48C-12 -48 -4 -42 0 -32C4 -42 12 -48 22 -48C37 -48 50 -36 50 -18C50 4 30 22 0 44Z" fill="#05070C" stroke="#05070C" stroke-width="6.49" /><path transform="translate(204 148) scale(0.7400)" d="M0 44C-30 22 -50 4 -50 -18C-50 -36 -37 -48 -22 -48C-12 -48 -4 -42 0 -32C4 -42 12 -48 22 -48C37 -48 50 -36 50 -18C50 4 30 22 0 44Z" fill="url(#ms-red)" /><g transform="rotate(180 375 525)"><g clip-path="url(#ck-top)"><g transform="translate(409 525) scale(1.1) translate(-409 -525)"><path d="M146 525.0L146 452C152 400 299.0 370 373.0 360L445.0 360C519.0 370 598 400 604 452L604 525.0Z" fill="#8E1F2A" stroke="#05070C" stroke-width="3" /><g clip-path="url(#ck-robe)"><path d="M128 392a14 14 0 0 0 28 0M156 392a14 14 0 0 0 28 0M184 392a14 14 0 0 0 28 0M212 392a14 14 0 0 0 28 0M240 392a14 14 0 0 0 28 0M268 392a14 14 0 0 0 28 0M296 392a14 14 0 0 0 28 0M324 392a14 14 0 0 0 28 0M352 392a14 14 0 0 0 28 0M380 392a14 14 0 0 0 28 0M408 392a14 14 0 0 0 28 0M436 392a14 14 0 0 0 28 0M464 392a14 14 0 0 0 28 0M492 392a14 14 0 0 0 28 0M520 392a14 14 0 0 0 28 0M548 392a14 14 0 0 0 28 0M576 392a14 14 0 0 0 28 0M604 392a14 14 0 0 0 28 0M142 408a14 14 0 0 0 28 0M170 408a14 14 0 0 0 28 0M198 408a14 14 0 0 0 28 0M226 408a14 14 0 0 0 28 0M254 408a14 14 0 0 0 28 0M282 408a14 14 0 0 0 28 0M310 408a14 14 0 0 0 28 0M338 408a14 14 0 0 0 28 0M366 408a14 14 0 0 0 28 0M394 408a14 14 0 0 0 28 0M422 408a14 14 0 0 0 28 0M450 408a14 14 0 0 0 28 0M478 408a14 14 0 0 0 28 0M506 408a14 14 0 0 0 28 0M534 408a14 14 0 0 0 28 0M562 408a14 14 0 0 0 28 0M590 408a14 14 0 0 0 28 0M128 424a14 14 0 0 0 28 0M156 424a14 14 0 0 0 28 0M184 424a14 14 0 0 0 28 0M212 424a14 14 0 0 0 28 0M240 424a14 14 0 0 0 28 0M268 424a14 14 0 0 0 28 0M296 424a14 14 0 0 0 28 0M324 424a14 14 0 0 0 28 0M352 424a14 14 0 0 0 28 0M380 424a14 14 0 0 0 28 0M408 424a14 14 0 0 0 28 0M436 424a14 14 0 0 0 28 0M464 424a14 14 0 0 0 28 0M492 424a14 14 0 0 0 28 0M520 424a14 14 0 0 0 28 0M548 424a14 14 0 0 0 28 0M576 424a14 14 0 0 0 28 0M604 424a14 14 0 0 0 28 0M142 440a14 14 0 0 0 28 0M170 440a14 14 0 0 0 28 0M198 440a14 14 0 0 0 28 0M226 440a14 14 0 0 0 28 0M254 440a14 14 0 0 0 28 0M282 440a14 14 0 0 0 28 0M310 440a14 14 0 0 0 28 0M338 440a14 14 0 0 0 28 0M366 440a14 14 0 0 0 28 0M394 440a14 14 0 0 0 28 0M422 440a14 14 0 0 0 28 0M450 440a14 14 0 0 0 28 0M478 440a14 14 0 0 0 28 0M506 440a14 14 0 0 0 28 0M534 440a14 14 0 0 0 28 0M562 440a14 14 0 0 0 28 0M590 440a14 14 0 0 0 28 0M128 456a14 14 0 0 0 28 0M156 456a14 14 0 0 0 28 0M184 456a14 14 0 0 0 28 0M212 456a14 14 0 0 0 28 0M240 456a14 14 0 0 0 28 0M268 456a14 14 0 0 0 28 0M296 456a14 14 0 0 0 28 0M324 456a14 14 0 0 0 28 0M352 456a14 14 0 0 0 28 0M380 456a14 14 0 0 0 28 0M408 456a14 14 0 0 0 28 0M436 456a14 14 0 0 0 28 0M464 456a14 14 0 0 0 28 0M492 456a14 14 0 0 0 28 0M520 456a14 14 0 0 0 28 0M548 456a14 14 0 0 0 28 0M576 456a14 14 0 0 0 28 0M604 456a14 14 0 0 0 28 0M142 472a14 14 0 0 0 28 0M170 472a14 14 0 0 0 28 0M198 472a14 14 0 0 0 28 0M226 472a14 14 0 0 0 28 0M254 472a14 14 0 0 0 28 0M282 472a14 14 0 0 0 28 0M310 472a14 14 0 0 0 28 0M338 472a14 14 0 0 0 28 0M366 472a14 14 0 0 0 28 0M394 472a14 14 0 0 0 28 0M422 472a14 14 0 0 0 28 0M450 472a14 14 0 0 0 28 0M478 472a14 14 0 0 0 28 0M506 472a14 14 0 0 0 28 0M534 472a14 14 0 0 0 28 0M562 472a14 14 0 0 0 28 0M590 472a14 14 0 0 0 28 0M128 488a14 14 0 0 0 28 0M156 488a14 14 0 0 0 28 0M184 488a14 14 0 0 0 28 0M212 488a14 14 0 0 0 28 0M240 488a14 14 0 0 0 28 0M268 488a14 14 0 0 0 28 0M296 488a14 14 0 0 0 28 0M324 488a14 14 0 0 0 28 0M352 488a14 14 0 0 0 28 0M380 488a14 14 0 0 0 28 0M408 488a14 14 0 0 0 28 0M436 488a14 14 0 0 0 28 0M464 488a14 14 0 0 0 28 0M492 488a14 14 0 0 0 28 0M520 488a14 14 0 0 0 28 0M548 488a14 14 0 0 0 28 0M576 488a14 14 0 0 0 28 0M604 488a14 14 0 0 0 28 0M142 504a14 14 0 0 0 28 0M170 504a14 14 0 0 0 28 0M198 504a14 14 0 0 0 28 0M226 504a14 14 0 0 0 28 0M254 504a14 14 0 0 0 28 0M282 504a14 14 0 0 0 28 0M310 504a14 14 0 0 0 28 0M338 504a14 14 0 0 0 28 0M366 504a14 14 0 0 0 28 0M394 504a14 14 0 0 0 28 0M422 504a14 14 0 0 0 28 0M450 504a14 14 0 0 0 28 0M478 504a14 14 0 0 0 28 0M506 504a14 14 0 0 0 28 0M534 504a14 14 0 0 0 28 0M562 504a14 14 0 0 0 28 0M590 504a14 14 0 0 0 28 0M128 520a14 14 0 0 0 28 0M156 520a14 14 0 0 0 28 0M184 520a14 14 0 0 0 28 0M212 520a14 14 0 0 0 28 0M240 520a14 14 0 0 0 28 0M268 520a14 14 0 0 0 28 0M296 520a14 14 0 0 0 28 0M324 520a14 14 0 0 0 28 0M352 520a14 14 0 0 0 28 0M380 520a14 14 0 0 0 28 0M408 520a14 14 0 0 0 28 0M436 520a14 14 0 0 0 28 0M464 520a14 14 0 0 0 28 0M492 520a14 14 0 0 0 28 0M520 520a14 14 0 0 0 28 0M548 520a14 14 0 0 0 28 0M576 520a14 14 0 0 0 28 0M604 520a14 14 0 0 0 28 0M142 536a14 14 0 0 0 28 0M170 536a14 14 0 0 0 28 0M198 536a14 14 0 0 0 28 0M226 536a14 14 0 0 0 28 0M254 536a14 14 0 0 0 28 0M282 536a14 14 0 0 0 28 0M310 536a14 14 0 0 0 28 0M338 536a14 14 0 0 0 28 0M366 536a14 14 0 0 0 28 0M394 536a14 14 0 0 0 28 0M422 536a14 14 0 0 0 28 0M450 536a14 14 0 0 0 28 0M478 536a14 14 0 0 0 28 0M506 536a14 14 0 0 0 28 0M534 536a14 14 0 0 0 28 0M562 536a14 14 0 0 0 28 0M590 536a14 14 0 0 0 28 0" fill="none" stroke="#5E121B" stroke-width="2.2" stroke-opacity="0.9"/></g><path d="M297.0 386C249.0 364 154 388 146 426L146 525.0L283.0 525.0C291.0 492 299.0 442 297.0 386Z" fill="#3A4560" stroke="#05070C" stroke-width="3" /><path d="M279.0 402C283.0 462 275.0 492 275.0 525.0M249.0 408C253.0 462 245.0 492 245.0 525.0M219.0 414C223.0 462 215.0 492 215.0 525.0" fill="none" stroke="#232B40" stroke-width="7"/><path d="M279.0 402C283.0 462 275.0 492 275.0 525.0M249.0 408C253.0 462 245.0 492 245.0 525.0M219.0 414C223.0 462 215.0 492 215.0 525.0" fill="none" stroke="#E9ECF2" stroke-width="2" stroke-opacity="0.8"/><path d="M297.0 386C291.0 442 291.0 492 283.0 525.0" fill="none" stroke="#CFA24E" stroke-width="5"/><path d="M521.0 386C569.0 364 596 388 604 426L604 525.0L535.0 525.0C527.0 492 519.0 442 521.0 386Z" fill="#3A4560" stroke="#05070C" stroke-width="3" /><path d="M539.0 402C535.0 462 543.0 492 543.0 525.0M569.0 408C565.0 462 573.0 492 573.0 525.0M599.0 414C595.0 462 603.0 492 603.0 525.0" fill="none" stroke="#232B40" stroke-width="7"/><path d="M539.0 402C535.0 462 543.0 492 543.0 525.0M569.0 408C565.0 462 573.0 492 573.0 525.0M599.0 414C595.0 462 603.0 492 603.0 525.0" fill="none" stroke="#E9ECF2" stroke-width="2" stroke-opacity="0.8"/><path d="M521.0 386C527.0 442 527.0 492 535.0 525.0" fill="none" stroke="#CFA24E" stroke-width="5"/><path d="M367.0 362L451.0 362L475.0 525.0L343.0 525.0Z" fill="#5E121B" stroke="#05070C" stroke-width="3" /><path d="M395.0 382H423.0L429.0 525.0H389.0Z" fill="#CFA24E" stroke="#05070C" stroke-width="2.2" /><path d="M409.0 403l8 9l-8 9l-8-9Z" fill="#E2463E" stroke="#05070C" stroke-width="1.4"/><path d="M409.0 433l8 9l-8 9l-8-9Z" fill="#E2463E" stroke="#05070C" stroke-width="1.4"/><path d="M409.0 463l8 9l-8 9l-8-9Z" fill="#E2463E" stroke="#05070C" stroke-width="1.4"/><path d="M409.0 493l8 9l-8 9l-8-9Z" fill="#E2463E" stroke="#05070C" stroke-width="1.4"/><path d="M367.0 362L343.0 525.0" fill="none" stroke="#CFA24E" stroke-width="4"/><path d="M451.0 362L475.0 525.0" fill="none" stroke="#CFA24E" stroke-width="4"/><path d="M291.0 394C319.0 358 359.0 352 409.0 358C459.0 352 499.0 358 527.0 394C489.0 390 449.0 388 409.0 396C369.0 388 329.0 390 291.0 394Z" fill="#E9ECF2" stroke="#05070C" stroke-width="3" /><path d="M313.0 372l3 8l-3 5l-3-5Z" fill="#05070C"/><path d="M337.0 378l3 8l-3 5l-3-5Z" fill="#05070C"/><path d="M361.0 372l3 8l-3 5l-3-5Z" fill="#05070C"/><path d="M385.0 378l3 8l-3 5l-3-5Z" fill="#05070C"/><path d="M409.0 372l3 8l-3 5l-3-5Z" fill="#05070C"/><path d="M433.0 378l3 8l-3 5l-3-5Z" fill="#05070C"/><path d="M457.0 372l3 8l-3 5l-3-5Z" fill="#05070C"/><path d="M481.0 378l3 8l-3 5l-3-5Z" fill="#05070C"/><path d="M505.0 372l3 8l-3 5l-3-5Z" fill="#05070C"/><path d="M518.0 432L518.0 138L527.0 112L536.0 138L536.0 432Z" fill="#DCE3EE" stroke="#05070C" stroke-width="3" /><path d="M527.0 124V428" fill="none" stroke="#7C889C" stroke-width="2"/><path d="M487.0 424L567.0 424L563.0 436L491.0 436Z" fill="#CFA24E" stroke="#05070C" stroke-width="2.6" /><path d="M520.0 436H534.0V498H520.0Z" fill="#7E5A22" stroke="#05070C" stroke-width="2" /><path d="M516 504A11 11 0 1 1 538 504A11 11 0 1 1 516 504Z" fill="#CFA24E" stroke="#05070C" stroke-width="2.4" /><path d="M357.0 232C339.0 272 339.0 332 349.0 358L469.0 358C479.0 332 479.0 272 461.0 232Z" fill="#D7DCE4" stroke="#05070C" stroke-width="3" /><path d="M355.0 252C347.0 292 349.0 322 355.0 346M349.0 256C341.0 292 344.0 322 351.0 346M463.0 252C471.0 292 469.0 322 463.0 346M469.0 256C477.0 292 474.0 322 467.0 346" fill="none" stroke="#9AA6BA" stroke-width="1.6" stroke-opacity="0.45"/><path d="M389.0 302L387.0 366L431.0 366L429.0 302Z" fill="#C48C62" stroke="#05070C" stroke-width="3" /><path d="M361.0 240C361.0 184 457.0 184 457.0 240C457.0 288 437.0 326 409.0 330C381.0 326 361.0 288 361.0 240Z" fill="#E6B48A" stroke="#05070C" stroke-width="3" /><path d="M352 256A8 13 0 1 1 368 256A8 13 0 1 1 352 256Z" fill="#C48C62" stroke="#05070C" stroke-width="2" /><path d="M450 256A8 13 0 1 1 466 256A8 13 0 1 1 450 256Z" fill="#C48C62" stroke="#05070C" stroke-width="2" /><path d="M377.0 250C383.0 242 395.0 242 401.0 250C395.0 256 383.0 256 377.0 250Z" fill="#FFFFFF" stroke="#05070C" stroke-width="1.6" /><circle cx="388.0" cy="249.5" r="5.2" fill="#4A3A1E"/><circle cx="388.0" cy="249.5" r="2.4" fill="#05070C"/><circle cx="389.8" cy="247.6" r="1.3" fill="#FFFFFF"/><path d="M376.0 251C383.0 241 395.0 241 402.0 251" fill="none" stroke="#05070C" stroke-width="2.4"/><path d="M375.0 240Q389.0 230 403.0 236" fill="none" stroke="#D7DCE4" stroke-width="4.4"/><path d="M417.0 250C423.0 242 435.0 242 441.0 250C435.0 256 423.0 256 417.0 250Z" fill="#FFFFFF" stroke="#05070C" stroke-width="1.6" /><circle cx="428.0" cy="249.5" r="5.2" fill="#4A3A1E"/><circle cx="428.0" cy="249.5" r="2.4" fill="#05070C"/><circle cx="429.8" cy="247.6" r="1.3" fill="#FFFFFF"/><path d="M416.0 251C423.0 241 435.0 241 442.0 251" fill="none" stroke="#05070C" stroke-width="2.4"/><path d="M415.0 236Q429.0 230 443.0 240" fill="none" stroke="#D7DCE4" stroke-width="4.4"/><path d="M411.0 256C410.0 268 402.0 276 403.0 282C407.0 286 413.0 285 417.0 281" fill="none" stroke="#05070C" stroke-width="2.2"/><path d="M361.0 256C355.0 322 375.0 386 409.0 396C443.0 386 463.0 322 457.0 256C449.0 284 439.0 294 427.0 296C419.0 308 399.0 308 391.0 296C379.0 294 369.0 284 361.0 256Z" fill="#D7DCE4" stroke="#05070C" stroke-width="3" /><path d="M379.0 318C375.0 342 385.0 362 391.0 384M394.0 318C390.0 342 398.5 362 400.0 384M409.0 318C405.0 342 412.0 362 409.0 384M424.0 318C420.0 342 425.5 362 418.0 384M439.0 318C435.0 342 439.0 362 427.0 384" fill="none" stroke="#9AA6BA" stroke-width="1.6" stroke-opacity="0.5"/><path d="M409.0 290C397.0 284 379.0 286 369.0 300C381.0 296 397.0 300 409.0 296C421.0 300 437.0 296 449.0 300C439.0 286 421.0 284 409.0 290Z" fill="#D7DCE4" stroke="#05070C" stroke-width="2" /><path d="M401.0 306Q409.0 310 417.0 306" fill="none" stroke="#05070C" stroke-width="2"/><path d="M359.0 240C359.0 192 459.0 192 459.0 240C449.0 218 429.0 210 409.0 210C389.0 210 369.0 218 359.0 240Z" fill="#D7DCE4" stroke="#05070C" stroke-width="2.4" /><path d="M354.5 192Q343.8 164.7 322 143.8Q326.1 174.9 347.5 196Z" fill="#CFA24E" stroke="#05070C" stroke-width="1.8" /><path d="M353.9 191.2Q338.6 169.1 314.2 155.9Q324 183.3 348.1 196.8Z" fill="#F6DB9A" stroke="#05070C" stroke-width="1.8" /><path d="M353.1 190.6Q335.1 174.2 310.3 168.6Q324.3 191.5 348.9 197.4Z" fill="#CFA24E" stroke="#05070C" stroke-width="1.8" /><path d="M352.2 190.2Q333.1 179.4 310.1 180.7Q326.8 198.8 349.8 197.8Z" fill="#F6DB9A" stroke="#05070C" stroke-width="1.8" /><path d="M351.3 190Q332.6 184.3 313.1 191.3Q331.2 204.6 350.7 198Z" fill="#CFA24E" stroke="#05070C" stroke-width="1.8" /><path d="M470.5 196Q488.8 173.1 496 143.8Q471.1 162.9 463.5 192Z" fill="#CFA24E" stroke="#05070C" stroke-width="1.8" /><path d="M469.9 196.8Q491.5 180.8 503.8 155.9Q476.8 166.6 464.1 191.2Z" fill="#F6DB9A" stroke="#05070C" stroke-width="1.8" /><path d="M469.1 197.4Q491.8 188.4 507.7 168.6Q481 171.1 464.9 190.6Z" fill="#CFA24E" stroke="#05070C" stroke-width="1.8" /><path d="M468.2 197.8Q490 195.3 507.9 180.7Q483.7 175.9 465.8 190.2Z" fill="#F6DB9A" stroke="#05070C" stroke-width="1.8" /><path d="M467.3 198Q486.5 201.1 504.9 191.3Q485.1 180.7 466.7 190Z" fill="#CFA24E" stroke="#05070C" stroke-width="1.8" /><path d="M351.0 216L343.0 148L371.0 180L387.0 128L409.0 170L431.0 128L447.0 180L475.0 148L467.0 216Z" fill="#CFA24E" stroke="#05070C" stroke-width="3" /><path d="M349.0 194H469.0V218H349.0Z" fill="#7E5A22" stroke="#05070C" stroke-width="3" /><circle cx="369" cy="206" r="6" fill="#E2463E" stroke="#05070C" stroke-width="1.6"/><circle cx="389" cy="206" r="6" fill="#E9ECF2" stroke="#05070C" stroke-width="1.6"/><circle cx="409" cy="206" r="6" fill="#E2463E" stroke="#05070C" stroke-width="1.6"/><circle cx="429" cy="206" r="6" fill="#E9ECF2" stroke="#05070C" stroke-width="1.6"/><circle cx="449" cy="206" r="6" fill="#E2463E" stroke="#05070C" stroke-width="1.6"/><circle cx="343.0" cy="148" r="6" fill="#E9ECF2" stroke="#05070C" stroke-width="1.6"/><circle cx="387.0" cy="128" r="6" fill="#E9ECF2" stroke="#05070C" stroke-width="1.6"/><circle cx="431.0" cy="128" r="6" fill="#E9ECF2" stroke="#05070C" stroke-width="1.6"/><circle cx="475.0" cy="148" r="6" fill="#E9ECF2" stroke="#05070C" stroke-width="1.6"/><path d="M409.0 170l0 -30" stroke="#05070C" stroke-width="2.5"/><path d="M399.0 146h20M409.0 136v20" stroke="#7E5A22" stroke-width="5"/><path d="M503.0 474L551.0 474L555.0 492L499.0 492Z" fill="#E9ECF2" stroke="#05070C" stroke-width="2.4" /><path d="M510.0 442C519.0 434 537.0 434 545.0 444C549.0 458 547.0 474 537.0 478C525.0 482 511.0 476 508.0 464Z" fill="#E6B48A" stroke="#05070C" stroke-width="2.6" /><path d="M515.0 450H541.0M515.0 458H541.0M515.0 466H541.0" fill="none" stroke="#C48C62" stroke-width="1.8"/></g></g><path transform="translate(204 148) scale(0.7400)" d="M0 44C-30 22 -50 4 -50 -18C-50 -36 -37 -48 -22 -48C-12 -48 -4 -42 0 -32C4 -42 12 -48 22 -48C37 -48 50 -36 50 -18C50 4 30 22 0 44Z" fill="#05070C" stroke="#05070C" stroke-width="6.49" /><path transform="translate(204 148) scale(0.7400)" d="M0 44C-30 22 -50 4 -50 -18C-50 -36 -37 -48 -22 -48C-12 -48 -4 -42 0 -32C4 -42 12 -48 22 -48C37 -48 50 -36 50 -18C50 4 30 22 0 44Z" fill="url(#ms-red)" /></g></g><path d="M142 525.0H608" stroke="#05070C" stroke-width="3"/><path d="M375.0 511.0L389.0 525.0L375.0 539.0L361.0 525.0Z" fill="url(#ms-rim)" stroke="#05070C" stroke-width="1.2"/><path d="M142 166C142 113.2 272.48 81.52 375 70C477.52 81.52 608 113.2 608 166L608 884C608 936.8 477.52 968.48 375 980C272.48 968.48 142 936.8 142 884Z" fill="none" stroke="url(#ms-rim)" stroke-width="5"/><path d="M154 170C154 122.7 277.76 94.32 375 84C472.24 94.32 596 122.7 596 170L596 880C596 927.3 472.24 955.68 375 966C277.76 955.68 154 927.3 154 880Z" fill="none" stroke="#CFA24E" stroke-width="1.1" stroke-opacity=".7"/>
<path d="M46.27 46 L46.27 150M104.04 46 L46.27 113.02M67.07 92.22 L106.36 150M30.07 46H62.47M30.07 150H62.47" fill="none" stroke-linejoin="round" stroke-linecap="round" stroke="#E2463E" stroke-width="12"/><path transform="translate(74 222) scale(0.6800)" d="M0 44C-30 22 -50 4 -50 -18C-50 -36 -37 -48 -22 -48C-12 -48 -4 -42 0 -32C4 -42 12 -48 22 -48C37 -48 50 -36 50 -18C50 4 30 22 0 44Z" fill="url(#ms-red)" stroke="#CFA24E" stroke-width="2.06" /><g transform="rotate(180 375 525)"><path d="M46.27 46 L46.27 150M104.04 46 L46.27 113.02M67.07 92.22 L106.36 150M30.07 46H62.47M30.07 150H62.47" fill="none" stroke-linejoin="round" stroke-linecap="round" stroke="#E2463E" stroke-width="12"/><path transform="translate(74 222) scale(0.6800)" d="M0 44C-30 22 -50 4 -50 -18C-50 -36 -37 -48 -22 -48C-12 -48 -4 -42 0 -32C4 -42 12 -48 22 -48C37 -48 50 -36 50 -18C50 4 30 22 0 44Z" fill="url(#ms-red)" stroke="#CFA24E" stroke-width="2.06" /></g>
<rect width="750" height="1050" fill="url(#ms-sheen)"/></g>
</svg>
