<?xml version="1.0" encoding="UTF-8"?>
<svg width="100%" height="100%" viewBox="0 0 750 1050" version="1.1" xmlns="http://www.w3.org/2000/svg" style="stroke-linejoin:round;stroke-linecap:round;">
<defs><linearGradient id="ms-gold" x1="0" y1="-140" x2="0" y2="140" gradientUnits="userSpaceOnUse"><stop offset="0" stop-color="#F6DB9A"/><stop offset="0.5" stop-color="#CFA24E"/><stop offset="1" stop-color="#7E5A22"/></linearGradient>
<linearGradient id="ms-gold-hi" x1="0" y1="-110" x2="0" y2="80" gradientUnits="userSpaceOnUse"><stop offset="0" stop-color="#FFF1C7"/><stop offset="0.6" stop-color="#F6DB9A"/><stop offset="1" stop-color="#CFA24E"/></linearGradient>
<linearGradient id="ms-gold-dk" x1="0" y1="-60" x2="0" y2="140" gradientUnits="userSpaceOnUse"><stop offset="0" stop-color="#CFA24E"/><stop offset="1" stop-color="#5A3F16"/></linearGradient>
<linearGradient id="ms-rim" x1="0" y1="0" x2="750" y2="1050" gradientUnits="userSpaceOnUse"><stop offset="0" stop-color="#F6DB9A"/><stop offset="0.35" stop-color="#7E5A22"/><stop offset="0.5" stop-color="#F6DB9A"/><stop offset="0.65" stop-color="#7E5A22"/><stop offset="1" stop-color="#F6DB9A"/></linearGradient>
<radialGradient id="ms-face" cx="375" cy="525" r="640" gradientUnits="userSpaceOnUse"><stop offset="0" stop-color="#1E283B"/><stop offset="0.6" stop-color="#121927"/><stop offset="1" stop-color="#0A0E17"/></radialGradient>
<linearGradient id="ms-red" x1="0" y1="0" x2="0" y2="1"><stop offset="0" stop-color="#FF7A6E"/><stop offset="0.55" stop-color="#E2463E"/><stop offset="1" stop-color="#9E1F22"/></linearGradient>
<linearGradient id="ms-sheen" x1="0" y1="0" x2="750" y2="1050" gradientUnits="userSpaceOnUse"><stop offset="0.3" stop-color="#FFFFFF" stop-opacity="0.000"/><stop offset="0.48" stop-color="#FFFFFF" stop-opacity="0.060"/><stop offset="0.66" stop-color="#FFFFFF" stop-opacity="0.000"/></linearGradient><clipPath id="card"><rect width="750" height="1050" rx="37.5" ry="37.5"/></clipPath></defs>
<g clip-path="url(#card)"><rect width="750" height="1050" fill="url(#ms-face)"/>
<rect x="14" y="14" width="722" height="1022" rx="26" fill="none" stroke="url(#ms-rim)" stroke-width="3.2"/><rect x="22" y="22" width="706" height="1006" rx="19" fill="none" stroke="#CFA24E" stroke-width="1" stroke-opacity=".6"/><path d="M24 118A94 94 0 0 1 118 24" fill="none" stroke="#CFA24E" stroke-width="1.4" stroke-opacity=".55"/><path d="M40 30L50 40L40 50L30 40Z" fill="url(#ms-rim)"/><g transform="matrix(-1 0 0 1 750 0)"><path d="M24 118A94 94 0 0 1 118 24" fill="none" stroke="#CFA24E" stroke-width="1.4" stroke-opacity=".55"/><path d="M40 30L50 40L40 50L30 40Z" fill="url(#ms-rim)"/></g><g transform="rotate(180 375 525)"><path d="M24 118A94 94 0 0 1 118 24" fill="none" stroke="#CFA24E" stroke-width="1.4" stroke-opacity=".55"/><path d="M40 30L50 40L40 50L30 40Z" fill="url(#ms-rim)"/><g transform="matrix(-1 0 0 1 750 0)"><path d="M24 118A94 94 0 0 1 118 24" fill="none" stroke="#CFA24E" stroke-width="1.4" stroke-opacity=".55"/><path d="M40 30L50 40L40 50L30 40Z" fill="url(#ms-rim)"/></g></g><path d="M22 499.0L32 525.0L22 551.0" fill="none" stroke="#CFA24E" stroke-width="1.6"/><g transform="matrix(-1 0 0 1 750 0)"><path d="M22 499.0L32 525.0L22 551.0" fill="none" stroke="#CFA24E" stroke-width="1.6"/></g>
<path d="M375.0 195.0C565.0 315.0 565.0 735.0 375.0 855.0C185.0 735.0 185.0 315.0 375.0 195.0Z" fill="#0A0E17" fill-opacity=".7" stroke="url(#ms-rim)" stroke-width="3"/><path d="M375.0 195.0C565.0 315.0 565.0 735.0 375.0 855.0C185.0 735.0 185.0 315.0 375.0 195.0Z" transform="translate(375.0 525.0) scale(.93) translate(-375.0 -525.0)" fill="none" stroke="#CFA24E" stroke-width="1" stroke-opacity=".7"/><path d="M315 235V205M327 227V185M339 219V165M351 211V145M363 203V125M375 195V105M387 203V125M399 211V145M411 219V165M423 227V185M435 235V205" stroke="#CFA24E" stroke-width="1.4" stroke-opacity=".55"/><g transform="rotate(180 375 525)"><path d="M315 235V205M327 227V185M339 219V165M351 211V145M363 203V125M375 195V105M387 203V125M399 211V145M411 219V165M423 227V185M435 235V205" stroke="#CFA24E" stroke-width="1.4" stroke-opacity=".55"/></g><path d="M268.6 440.73l-9 29.58M298.77 632.73l-9 29.41M330.28 357.3l-9 47.44M372.32 418.07l-9 35.02M473.42 450.98l-9 43.99M339.64 390.44l-9 45.87M237.31 755.9l-9 33.3M447 500.12l-9 27.73M243.37 299.66l-9 28.51M280.69 396.89l-9 30.82M434.57 506.2l-9 29.87M234.89 615.15l-9 38.13M502.84 327.58l-9 30.58M505.85 397.7l-9 46.37M524.54 542.17l-9 41.83M272.36 713.76l-9 39.59M380.3 257.13l-9 41.09M389.33 447.97l-9 46.22M516.72 666.3l-9 28.7M519.49 251.61l-9 41.76M440.39 470.27l-9 35.65M294.09 450.85l-9 31.46M446.92 559.56l-9 42.47M442.19 509.98l-9 37.85M240.49 446.96l-9 38.09M371.96 798.89l-9 29.81M393.92 508.04l-9 30.33M472.22 403.58l-9 31.79M446.76 379.99l-9 46.31M301.26 377.24l-9 28.38M401.95 523.07l-9 43.16M522.84 247.87l-9 34.6M437.36 418.25l-9 45.7M331.73 455.56l-9 37.86M468.05 527.59l-9 32.39M460.27 750.04l-9 33.26M305.26 329.84l-9 41.77M484.28 541.11l-9 46.58M337.73 582.99l-9 42.84M380.82 545.25l-9 29.06" stroke="#AFC3E6" stroke-width="1.3" stroke-opacity="0.1"/><path transform="translate(375 525) scale(2.9000)" d="M0 44C-30 22 -50 4 -50 -18C-50 -36 -37 -48 -22 -48C-12 -48 -4 -42 0 -32C4 -42 12 -48 22 -48C37 -48 50 -36 50 -18C50 4 30 22 0 44Z" fill="url(#ms-red)" stroke="url(#ms-rim)" stroke-width="1.72" /><path transform="translate(375 525) scale(2.3000)" d="M0 44C-30 22 -50 4 -50 -18C-50 -36 -37 -48 -22 -48C-12 -48 -4 -42 0 -32C4 -42 12 -48 22 -48C37 -48 50 -36 50 -18C50 4 30 22 0 44Z" fill="none" stroke="#CFA24E" stroke-width="0.61" stroke-opacity=".8"/>
<path d="M41.64 150 L74 46 L106.36 150M53.2 115.33 L94.8 115.33M25.44 150H57.84M90.16 150H122.56" fill="none" stroke-linejoin="round" stroke-linecap="round" stroke="#E2463E" stroke-width="12"/><path transform="translate(74 222) scale(0.6800)" d="M0 44C-30 22 -50 4 -50 -18C-50 -36 -37 -48 -22 -48C-12 -48 -4 -42 0 -32C4 -42 12 -48 22 -48C37 -48 50 -36 50 -18C50 4 30 22 0 44Z" fill="url(#ms-red)" stroke="#CFA24E" stroke-width="2.06" /><g transform="rotate(180 375 525)"><path d="M41.64 150 L74 46 L106.36 150M53.2 115.33 L94.8 115.33M25.44 150H57.84M90.16 150H122.56" fill="none" stroke-linejoin="round" stroke-linecap="round" stroke="#E2463E" stroke-width="12"/><path transform="translate(74 222) scale(0.6800)" d="M0 44C-30 22 -50 4 -50 -18C-50 -36 -37 -48 -22 -48C-12 -48 -4 -42 0 -32C4 -42 12 -48 22 -48C37 -48 50 -36 50 -18C50 4 30 22 0 44Z" fill="url(#ms-red)" stroke="#CFA24E" stroke-width="2.06" /></g>
<rect width="750" height="1050" fill="url(#ms-sheen)"/></g>
</svg>
