<?xml version="1.0" encoding="UTF-8"?>
<svg width="100%" height="100%" viewBox="0 0 750 1050" version="1.1" xmlns="http://www.w3.org/2000/svg" style="stroke-linejoin:round;stroke-linecap:round;">
<defs><clipPath id="card"><rect width="750" height="1050" rx="37.5" ry="37.5"/></clipPath></defs>
<g clip-path="url(#card)"><rect width="750" height="1050" fill="#F1E6CC"/>
<g transform="scale(6)"><path d="M61 0h1v1h-1zM63 0h1v1h-1zM60 1h1v1h-1zM64 1h1v1h-1zM6 2h54v1h-54zM65 2h54v1h-54zM4 3h2v1h-2zM58 3h1v1h-1zM66 3h1v1h-1zM119 3h2v1h-2zM3 4h1v2h-1zM59 4h1v1h-1zM65 4h1v1h-1zM121 4h1v2h-1zM60 5h1v1h-1zM64 5h1v1h-1zM2 6h1v79h-1zM61 6h1v1h-1zM63 6h1v1h-1zM122 6h1v79h-1zM62 7h1v1h-1zM3 83h1v1h-1zM121 83h1v1h-1zM4 84h1v1h-1zM120 84h1v1h-1zM1 85h1v1h-1zM5 85h1v1h-1zM119 85h1v1h-1zM123 85h1v1h-1zM0 86h1v1h-1zM6 86h1v1h-1zM118 86h1v1h-1zM124 86h1v1h-1zM7 87h1v1h-1zM117 87h1v1h-1zM0 88h1v1h-1zM6 88h1v1h-1zM118 88h1v1h-1zM124 88h1v1h-1zM1 89h1v1h-1zM5 89h1v1h-1zM119 89h1v1h-1zM123 89h1v1h-1zM2 90h1v79h-1zM4 90h1v1h-1zM120 90h1v1h-1zM122 90h1v79h-1zM3 91h1v1h-1zM121 91h1v1h-1zM62 167h1v1h-1zM61 168h1v1h-1zM63 168h1v1h-1zM3 169h1v2h-1zM60 169h1v1h-1zM64 169h1v1h-1zM121 169h1v2h-1zM59 170h1v1h-1zM65 170h1v1h-1zM4 171h2v1h-2zM58 171h1v2h-1zM66 171h1v2h-1zM119 171h2v1h-2zM6 172h52v1h-52zM59 172h1v1h-1zM65 172h1v1h-1zM67 172h52v1h-52zM60 173h1v1h-1zM64 173h1v1h-1zM61 174h1v1h-1zM63 174h1v1h-1z" fill="#0E0E26" stroke="#0E0E26" stroke-width=".08" stroke-linejoin="miter"/><path d="M61 1h1v1h-1zM60 2h1v1h-1zM64 3h1v1h-1zM63 4h1v1h-1zM62 5h1v1h-1zM2 85h1v1h-1zM120 85h1v1h-1zM1 86h1v1h-1zM119 86h1v1h-1zM5 87h1v1h-1zM123 87h1v1h-1zM4 88h1v1h-1zM122 88h1v1h-1zM3 89h1v1h-1zM121 89h1v1h-1zM61 169h1v1h-1zM60 170h1v1h-1zM64 171h1v1h-1zM63 172h1v1h-1zM62 173h1v1h-1z" fill="#FFE59A" stroke="#FFE59A" stroke-width=".08" stroke-linejoin="miter"/><path d="M62 0h1v2h-1zM63 1h1v2h-1zM61 2h1v1h-1zM64 2h1v1h-1zM59 3h2v1h-2zM65 3h1v1h-1zM60 4h2v1h-2zM64 4h1v1h-1zM61 5h1v1h-1zM63 5h1v1h-1zM62 6h1v1h-1zM3 84h1v2h-1zM121 84h1v2h-1zM4 85h1v2h-1zM122 85h1v2h-1zM2 86h1v1h-1zM5 86h1v1h-1zM120 86h1v1h-1zM123 86h1v1h-1zM0 87h2v1h-2zM6 87h1v1h-1zM118 87h2v1h-2zM124 87h1v1h-1zM1 88h2v1h-2zM5 88h1v1h-1zM119 88h2v1h-2zM123 88h1v1h-1zM2 89h1v1h-1zM4 89h1v1h-1zM120 89h1v1h-1zM122 89h1v1h-1zM3 90h1v1h-1zM121 90h1v1h-1zM62 168h1v2h-1zM63 169h1v2h-1zM61 170h1v1h-1zM64 170h1v1h-1zM59 171h2v1h-2zM65 171h1v1h-1zM60 172h2v1h-2zM64 172h1v1h-1zM61 173h1v1h-1zM63 173h1v1h-1zM62 174h1v1h-1z" fill="#A5650F" stroke="#A5650F" stroke-width=".08" stroke-linejoin="miter"/><path d="M62 2h1v3h-1zM61 3h1v1h-1zM63 3h1v1h-1zM3 86h1v3h-1zM121 86h1v3h-1zM2 87h1v1h-1zM4 87h1v1h-1zM120 87h1v1h-1zM122 87h1v1h-1zM62 170h1v3h-1zM61 171h1v1h-1zM63 171h1v1h-1z" fill="#BE1C38" stroke="#BE1C38" stroke-width=".08" stroke-linejoin="miter"/><path d="M6 3h52v1h-52zM67 3h52v1h-52zM4 4h2v1h-2zM119 4h2v1h-2zM4 5h1v1h-1zM120 5h1v1h-1zM3 6h1v77h-1zM121 6h1v77h-1zM3 92h1v77h-1zM121 92h1v77h-1zM4 169h1v2h-1zM120 169h1v2h-1zM5 170h1v1h-1zM119 170h1v1h-1zM6 171h52v1h-52zM67 171h52v1h-52z" fill="#1F2052" stroke="#1F2052" stroke-width=".08" stroke-linejoin="miter"/><path d="M6 4h53v1h-53zM66 4h53v1h-53zM5 5h1v1h-1zM119 5h1v1h-1zM4 6h1v78h-1zM120 6h1v78h-1zM4 91h1v78h-1zM120 91h1v78h-1zM5 169h1v1h-1zM119 169h1v1h-1zM6 170h53v1h-53zM66 170h53v1h-53z" fill="#5E2C8C" stroke="#5E2C8C" stroke-width=".08" stroke-linejoin="miter"/><path d="M7 6h1v1h-1zM10 6h2v1h-2zM14 6h2v1h-2zM18 6h2v1h-2zM22 6h2v1h-2zM26 6h2v1h-2zM30 6h2v1h-2zM34 6h2v1h-2zM38 6h2v1h-2zM42 6h2v1h-2zM46 6h2v1h-2zM50 6h2v1h-2zM54 6h2v1h-2zM58 6h2v1h-2zM66 6h2v1h-2zM70 6h2v1h-2zM74 6h2v1h-2zM78 6h2v1h-2zM82 6h2v1h-2zM86 6h2v1h-2zM90 6h2v1h-2zM94 6h2v1h-2zM98 6h2v1h-2zM102 6h2v1h-2zM106 6h2v1h-2zM110 6h2v1h-2zM114 6h2v1h-2zM6 7h1v1h-1zM118 7h1v1h-1zM6 10h1v2h-1zM118 10h1v2h-1zM6 14h1v2h-1zM118 14h1v2h-1zM6 18h1v2h-1zM118 18h1v2h-1zM6 22h1v2h-1zM118 22h1v2h-1zM6 26h1v2h-1zM118 26h1v2h-1zM6 30h1v2h-1zM118 30h1v2h-1zM6 34h1v2h-1zM118 34h1v2h-1zM6 38h1v2h-1zM118 38h1v2h-1zM6 42h1v2h-1zM118 42h1v2h-1zM6 46h1v2h-1zM118 46h1v2h-1zM6 50h1v2h-1zM118 50h1v2h-1zM6 54h1v2h-1zM118 54h1v2h-1zM6 58h1v2h-1zM118 58h1v2h-1zM6 62h1v2h-1zM118 62h1v2h-1zM6 66h1v2h-1zM118 66h1v2h-1zM6 70h1v2h-1zM118 70h1v2h-1zM6 74h1v2h-1zM118 74h1v2h-1zM6 78h1v2h-1zM118 78h1v2h-1zM6 82h1v2h-1zM118 82h1v2h-1zM6 90h1v2h-1zM118 90h1v2h-1zM6 94h1v2h-1zM118 94h1v2h-1zM6 98h1v2h-1zM118 98h1v2h-1zM6 102h1v2h-1zM118 102h1v2h-1zM6 106h1v2h-1zM118 106h1v2h-1zM6 110h1v2h-1zM118 110h1v2h-1zM6 114h1v2h-1zM118 114h1v2h-1zM6 118h1v2h-1zM118 118h1v2h-1zM6 122h1v2h-1zM118 122h1v2h-1zM6 126h1v2h-1zM118 126h1v2h-1zM6 130h1v2h-1zM118 130h1v2h-1zM6 134h1v2h-1zM118 134h1v2h-1zM6 138h1v2h-1zM118 138h1v2h-1zM6 142h1v2h-1zM118 142h1v2h-1zM6 146h1v2h-1zM118 146h1v2h-1zM6 150h1v2h-1zM118 150h1v2h-1zM6 154h1v2h-1zM118 154h1v2h-1zM6 158h1v2h-1zM118 158h1v2h-1zM6 162h1v2h-1zM118 162h1v2h-1zM6 166h1v2h-1zM118 166h1v2h-1zM8 168h2v1h-2zM12 168h2v1h-2zM16 168h2v1h-2zM20 168h2v1h-2zM24 168h2v1h-2zM28 168h2v1h-2zM32 168h2v1h-2zM36 168h2v1h-2zM40 168h2v1h-2zM44 168h2v1h-2zM48 168h2v1h-2zM52 168h2v1h-2zM56 168h2v1h-2zM60 168h1v1h-1zM64 168h2v1h-2zM68 168h2v1h-2zM72 168h2v1h-2zM76 168h2v1h-2zM80 168h2v1h-2zM84 168h2v1h-2zM88 168h2v1h-2zM92 168h2v1h-2zM96 168h2v1h-2zM100 168h2v1h-2zM104 168h2v1h-2zM108 168h2v1h-2zM112 168h2v1h-2zM116 168h2v1h-2z" fill="#E3D4B2" stroke="#E3D4B2" stroke-width=".08" stroke-linejoin="miter"/></g>
<g transform="translate(140 75) scale(10)"><path d="M3 0h41v1h-41zM1 1h2v1h-2zM44 1h2v1h-2zM1 2h1v1h-1zM45 2h1v1h-1zM0 3h1v84h-1zM15 3h1v2h-1zM34 3h1v2h-1zM38 3h1v2h-1zM46 3h1v84h-1zM13 4h1v1h-1zM24 4h3v1h-3zM29 4h5v1h-5zM35 4h3v1h-3zM39 4h3v1h-3zM22 5h2v1h-2zM31 5h1v10h-1zM37 5h1v1h-1zM42 5h1v10h-1zM12 6h2v1h-2zM21 6h1v1h-1zM38 6h1v2h-1zM13 7h1v29h-1zM20 7h1v3h-1zM35 7h1v1h-1zM37 7h1v1h-1zM34 8h1v1h-1zM36 8h1v1h-1zM39 8h1v1h-1zM19 9h1v3h-1zM21 9h6v1h-6zM28 9h3v1h-3zM40 9h1v2h-1zM25 10h4v2h-4zM30 10h1v2h-1zM32 10h1v1h-1zM35 10h1v1h-1zM37 10h1v1h-1zM20 11h5v1h-5zM29 11h1v1h-1zM33 11h2v1h-2zM36 11h1v3h-1zM38 11h2v1h-2zM21 12h2v1h-2zM25 12h1v1h-1zM28 12h1v1h-1zM20 13h2v1h-2zM34 13h2v1h-2zM37 13h2v1h-2zM20 14h1v6h-1zM23 14h2v1h-2zM29 14h1v1h-1zM41 14h1v2h-1zM22 15h1v1h-1zM32 15h9v1h-9zM33 16h1v3h-1zM31 17h1v4h-1zM22 18h1v2h-1zM21 20h1v1h-1zM23 20h1v2h-1zM30 20h1v1h-1zM32 20h1v1h-1zM24 22h1v6h-1zM28 22h2v1h-2zM26 23h2v1h-2zM29 23h1v5h-1zM23 26h1v1h-1zM30 26h1v1h-1zM17 27h4v1h-4zM25 27h4v1h-4zM32 27h4v1h-4zM7 28h5v1h-5zM14 28h2v1h-2zM20 28h1v1h-1zM33 28h1v1h-1zM37 28h2v1h-2zM42 28h2v1h-2zM3 29h3v1h-3zM26 29h2v1h-2zM39 29h2v1h-2zM19 30h1v1h-1zM22 30h1v1h-1zM25 30h1v1h-1zM28 30h1v2h-1zM31 30h1v1h-1zM14 33h1v4h-1zM28 33h1v2h-1zM39 33h1v6h-1zM12 35h1v1h-1zM14 39h1v1h-1zM13 40h1v1h-1zM15 40h1v4h-1zM23 42h1v1h-1zM3 43h12v1h-12zM16 43h7v1h-7zM24 43h20v1h-20zM21 44h1v3h-1zM25 44h1v3h-1zM3 46h18v1h-18zM22 46h1v1h-1zM24 46h1v1h-1zM26 46h18v1h-18zM23 47h1v1h-1zM31 47h1v3h-1zM33 49h1v1h-1zM32 50h1v1h-1zM7 51h1v6h-1zM32 53h1v4h-1zM33 54h2v1h-2zM18 55h1v2h-1zM33 55h1v29h-1zM18 58h1v2h-1zM15 59h1v1h-1zM21 59h1v1h-1zM24 59h1v1h-1zM27 59h1v1h-1zM6 60h2v1h-2zM19 60h2v1h-2zM41 60h3v1h-3zM3 61h2v1h-2zM8 61h2v1h-2zM13 61h1v2h-1zM26 61h1v2h-1zM31 61h2v1h-2zM35 61h5v1h-5zM11 62h2v1h-2zM14 62h1v1h-1zM17 62h6v1h-6zM27 62h3v1h-3zM16 63h2v1h-2zM22 63h2v1h-2zM17 64h1v4h-1zM22 64h1v4h-1zM19 66h2v1h-2zM18 67h1v1h-1zM23 68h1v2h-1zM14 69h3v1h-3zM25 69h1v1h-1zM15 70h1v3h-1zM24 70h1v2h-1zM26 70h1v7h-1zM13 71h1v4h-1zM5 74h8v1h-8zM14 74h1v1h-1zM24 74h1v1h-1zM4 75h2v1h-2zM15 75h1v11h-1zM17 75h1v1h-1zM22 75h2v1h-2zM4 76h1v9h-1zM8 76h5v1h-5zM25 76h1v3h-1zM10 77h1v2h-1zM18 77h1v4h-1zM21 77h1v4h-1zM24 77h1v2h-1zM7 78h2v1h-2zM12 78h2v1h-2zM16 78h2v1h-2zM19 78h2v2h-2zM22 78h2v1h-2zM26 78h2v1h-2zM6 79h1v2h-1zM9 79h1v1h-1zM11 79h1v1h-1zM14 79h1v1h-1zM16 79h1v2h-1zM27 79h1v2h-1zM17 80h1v1h-1zM20 80h1v1h-1zM22 80h5v1h-5zM7 81h1v1h-1zM10 81h1v1h-1zM12 81h1v1h-1zM26 81h1v2h-1zM8 82h2v1h-2zM11 82h1v1h-1zM8 83h1v1h-1zM25 83h1v1h-1zM34 83h1v1h-1zM9 84h1v2h-1zM23 84h2v1h-2zM5 85h4v1h-4zM10 85h5v1h-5zM16 85h2v1h-2zM20 85h3v1h-3zM31 85h1v2h-1zM33 85h1v1h-1zM8 86h1v1h-1zM12 86h1v1h-1zM1 87h1v2h-1zM45 87h1v2h-1zM2 88h1v1h-1zM44 88h1v1h-1zM3 89h41v1h-41z" fill="#0E0E26" stroke="#0E0E26" stroke-width=".08" stroke-linejoin="miter"/><path d="M3 1h41v1h-41zM1 3h1v84h-1zM45 3h1v84h-1zM3 88h41v1h-41z" fill="#FFE59A" stroke="#FFE59A" stroke-width=".08" stroke-linejoin="miter"/><path d="M2 2h1v1h-1zM44 2h1v1h-1zM10 3h2v2h-2zM14 3h1v3h-1zM11 5h3v1h-3zM12 7h1v28h-1zM27 9h1v1h-1zM20 10h5v1h-5zM29 10h1v1h-1zM14 30h1v3h-1zM26 30h2v2h-2zM39 30h1v3h-1zM25 31h1v12h-1zM28 32h1v1h-1zM26 33h2v2h-2zM27 35h2v7h-2zM26 36h1v3h-1zM20 39h1v1h-1zM26 40h1v2h-1zM33 40h1v1h-1zM12 42h3v1h-3zM28 42h1v1h-1zM40 42h1v1h-1zM3 44h18v2h-18zM26 44h18v2h-18zM6 47h1v1h-1zM18 47h1v8h-1zM21 47h1v12h-1zM32 47h3v1h-3zM19 48h2v2h-2zM13 49h1v1h-1zM19 50h1v7h-1zM26 50h1v1h-1zM20 51h1v3h-1zM20 55h1v2h-1zM34 55h1v28h-1zM7 57h1v3h-1zM18 57h1v1h-1zM32 57h1v3h-1zM19 58h2v2h-2zM17 79h1v1h-1zM22 79h5v1h-5zM19 80h1v1h-1zM32 84h4v1h-4zM32 85h1v2h-1zM35 85h2v2h-2zM2 87h1v1h-1zM44 87h1v1h-1z" fill="#F2B230" stroke="#F2B230" stroke-width=".08" stroke-linejoin="miter"/><path d="M3 2h41v1h-41zM2 3h2v1h-2zM43 3h2v1h-2zM2 4h1v83h-1zM44 4h1v83h-1zM3 86h1v2h-1zM43 86h1v2h-1zM4 87h39v1h-39z" fill="#A5650F" stroke="#A5650F" stroke-width=".08" stroke-linejoin="miter"/><path d="M4 3h6v5h-6zM16 3h7v1h-7zM24 3h3v1h-3zM28 3h3v1h-3zM32 3h2v1h-2zM39 3h4v1h-4zM3 4h1v25h-1zM17 4h1v1h-1zM19 4h1v3h-1zM21 4h1v1h-1zM23 4h1v1h-1zM42 4h2v1h-2zM10 5h1v1h-1zM15 5h2v1h-2zM18 5h1v1h-1zM20 5h1v1h-1zM43 5h1v23h-1zM11 6h1v22h-1zM15 6h1v5h-1zM17 6h1v3h-1zM35 6h3v1h-3zM10 7h1v1h-1zM14 7h1v1h-1zM16 7h1v1h-1zM18 7h1v1h-1zM36 7h1v1h-1zM4 8h4v20h-4zM9 8h1v20h-1zM19 8h1v1h-1zM8 9h1v3h-1zM10 9h1v1h-1zM14 9h1v1h-1zM16 9h1v1h-1zM18 9h1v1h-1zM33 9h2v2h-2zM36 9h1v2h-1zM38 9h2v2h-2zM17 10h1v1h-1zM10 11h1v1h-1zM14 11h1v1h-1zM16 11h1v1h-1zM18 11h1v1h-1zM15 12h1v1h-1zM19 12h1v1h-1zM8 13h1v3h-1zM10 13h1v1h-1zM14 13h1v1h-1zM16 13h1v1h-1zM18 13h1v1h-1zM15 14h1v1h-1zM17 14h1v1h-1zM10 15h1v1h-1zM14 15h1v1h-1zM16 15h1v1h-1zM18 15h1v1h-1zM42 15h1v1h-1zM15 16h1v1h-1zM39 16h1v1h-1zM41 16h1v1h-1zM8 17h1v3h-1zM10 17h1v1h-1zM14 17h1v1h-1zM16 17h1v1h-1zM18 17h1v1h-1zM34 17h1v1h-1zM36 17h1v1h-1zM38 17h1v1h-1zM40 17h1v1h-1zM42 17h1v1h-1zM15 18h1v1h-1zM17 18h1v1h-1zM37 18h1v1h-1zM39 18h1v1h-1zM41 18h1v3h-1zM10 19h1v1h-1zM14 19h1v1h-1zM16 19h1v1h-1zM18 19h1v1h-1zM34 19h1v1h-1zM36 19h1v1h-1zM38 19h1v1h-1zM40 19h1v1h-1zM42 19h1v1h-1zM15 20h1v1h-1zM19 20h1v1h-1zM35 20h1v1h-1zM39 20h1v1h-1zM8 21h1v3h-1zM10 21h1v1h-1zM14 21h1v1h-1zM16 21h1v1h-1zM18 21h1v1h-1zM20 21h1v1h-1zM22 21h1v1h-1zM30 21h1v1h-1zM32 21h1v1h-1zM34 21h1v1h-1zM36 21h1v1h-1zM38 21h1v1h-1zM40 21h1v1h-1zM42 21h1v1h-1zM15 22h1v1h-1zM17 22h1v1h-1zM19 22h1v1h-1zM21 22h1v1h-1zM33 22h1v1h-1zM35 22h1v1h-1zM37 22h1v1h-1zM39 22h1v1h-1zM41 22h1v7h-1zM10 23h1v1h-1zM14 23h1v1h-1zM16 23h1v1h-1zM18 23h1v1h-1zM20 23h1v1h-1zM22 23h1v1h-1zM30 23h1v1h-1zM32 23h1v1h-1zM34 23h1v1h-1zM36 23h1v1h-1zM38 23h1v1h-1zM40 23h1v1h-1zM42 23h1v1h-1zM15 24h1v4h-1zM17 24h1v1h-1zM19 24h1v1h-1zM23 24h1v1h-1zM31 24h1v1h-1zM35 24h1v1h-1zM37 24h1v1h-1zM39 24h1v5h-1zM8 25h1v3h-1zM10 25h1v1h-1zM14 25h1v1h-1zM16 25h1v1h-1zM18 25h1v1h-1zM20 25h1v1h-1zM22 25h1v1h-1zM30 25h1v1h-1zM32 25h1v1h-1zM34 25h1v1h-1zM36 25h1v1h-1zM38 25h1v1h-1zM40 25h1v1h-1zM42 25h1v1h-1zM17 26h1v1h-1zM19 26h1v1h-1zM21 26h1v1h-1zM31 26h1v1h-1zM33 26h1v1h-1zM35 26h1v1h-1zM37 26h1v2h-1zM10 27h1v1h-1zM14 27h1v1h-1zM16 27h1v1h-1zM36 27h1v1h-1zM38 27h1v1h-1zM40 27h1v1h-1zM42 27h1v1h-1zM4 28h3v1h-3zM9 33h1v4h-1zM41 40h1v3h-1zM9 41h1v1h-1zM5 47h1v3h-1zM37 48h1v1h-1zM37 53h1v4h-1zM5 61h1v7h-1zM7 61h1v5h-1zM40 61h4v25h-4zM3 62h2v1h-2zM6 62h1v1h-1zM8 62h3v1h-3zM30 62h3v1h-3zM35 62h5v1h-5zM3 63h1v23h-1zM9 63h1v1h-1zM11 63h1v1h-1zM13 63h1v1h-1zM15 63h1v1h-1zM25 63h1v1h-1zM27 63h1v1h-1zM29 63h1v1h-1zM31 63h1v3h-1zM35 63h1v21h-1zM37 63h3v2h-3zM4 64h1v1h-1zM6 64h1v1h-1zM8 64h1v1h-1zM10 64h1v1h-1zM12 64h1v1h-1zM14 64h1v1h-1zM16 64h1v1h-1zM24 64h1v1h-1zM26 64h1v1h-1zM28 64h1v1h-1zM30 64h1v1h-1zM32 64h1v1h-1zM36 64h1v1h-1zM9 65h1v1h-1zM11 65h1v1h-1zM15 65h1v1h-1zM23 65h1v1h-1zM27 65h1v1h-1zM29 65h1v1h-1zM37 65h1v22h-1zM39 65h1v22h-1zM4 66h1v1h-1zM6 66h1v1h-1zM8 66h1v1h-1zM10 66h1v1h-1zM12 66h1v1h-1zM14 66h1v1h-1zM16 66h1v1h-1zM24 66h1v1h-1zM26 66h1v1h-1zM28 66h1v1h-1zM30 66h1v1h-1zM32 66h1v1h-1zM36 66h1v1h-1zM38 66h1v3h-1zM7 67h1v1h-1zM9 67h1v1h-1zM11 67h1v1h-1zM13 67h1v1h-1zM25 67h1v1h-1zM27 67h1v1h-1zM29 67h1v1h-1zM31 67h1v1h-1zM4 68h1v1h-1zM6 68h1v1h-1zM8 68h1v1h-1zM10 68h1v1h-1zM12 68h1v1h-1zM14 68h1v1h-1zM16 68h1v1h-1zM24 68h1v1h-1zM26 68h1v1h-1zM28 68h1v1h-1zM30 68h1v1h-1zM32 68h1v1h-1zM36 68h1v1h-1zM5 69h1v3h-1zM7 69h1v1h-1zM11 69h1v1h-1zM27 69h1v1h-1zM31 69h1v1h-1zM4 70h1v1h-1zM6 70h1v1h-1zM8 70h1v1h-1zM10 70h1v1h-1zM12 70h1v1h-1zM28 70h1v1h-1zM30 70h1v1h-1zM32 70h1v1h-1zM36 70h1v1h-1zM38 70h1v3h-1zM7 71h1v1h-1zM9 71h1v1h-1zM29 71h1v1h-1zM31 71h1v1h-1zM4 72h1v1h-1zM6 72h1v1h-1zM8 72h1v1h-1zM10 72h1v1h-1zM12 72h1v1h-1zM28 72h1v1h-1zM30 72h1v1h-1zM32 72h1v1h-1zM36 72h1v1h-1zM5 73h1v1h-1zM7 73h1v1h-1zM31 73h1v1h-1zM4 74h1v1h-1zM28 74h1v1h-1zM30 74h1v1h-1zM32 74h1v1h-1zM36 74h1v1h-1zM38 74h1v3h-1zM29 75h1v1h-1zM31 75h1v1h-1zM28 76h1v1h-1zM30 76h1v1h-1zM32 76h1v1h-1zM36 76h1v1h-1zM27 77h1v1h-1zM31 77h1v1h-1zM28 78h1v1h-1zM30 78h1v1h-1zM32 78h1v1h-1zM36 78h1v1h-1zM38 78h1v3h-1zM7 79h2v2h-2zM10 79h1v2h-1zM12 79h2v2h-2zM29 79h1v1h-1zM31 79h1v6h-1zM28 80h1v1h-1zM30 80h1v1h-1zM32 80h1v1h-1zM36 80h1v1h-1zM27 81h1v1h-1zM29 81h1v3h-1zM10 82h1v2h-1zM28 82h1v1h-1zM30 82h1v1h-1zM32 82h1v1h-1zM36 82h1v1h-1zM38 82h1v5h-1zM9 83h1v1h-1zM11 83h1v1h-1zM27 83h1v4h-1zM26 84h1v1h-1zM28 84h1v1h-1zM30 84h1v1h-1zM36 84h1v1h-1zM4 85h1v2h-1zM23 85h1v1h-1zM25 85h1v2h-1zM29 85h1v2h-1zM5 86h3v1h-3zM13 86h2v1h-2zM16 86h3v1h-3zM20 86h3v1h-3zM24 86h1v1h-1zM26 86h1v1h-1zM28 86h1v1h-1zM30 86h1v1h-1zM40 86h3v1h-3z" fill="#1F2052" stroke="#1F2052" stroke-width=".08" stroke-linejoin="miter"/><path d="M12 3h2v1h-2zM12 4h1v1h-1zM18 28h1v15h-1zM35 28h1v15h-1zM37 29h1v14h-1zM23 30h2v12h-2zM29 30h2v13h-2zM20 31h3v4h-3zM31 31h2v12h-2zM21 35h2v8h-2zM15 37h1v3h-1zM20 40h1v3h-1zM33 41h1v2h-1zM24 42h1v1h-1zM9 47h1v14h-1zM11 47h1v15h-1zM13 47h5v2h-5zM22 47h1v13h-1zM24 47h3v3h-3zM28 47h1v15h-1zM23 48h1v12h-1zM14 49h4v10h-4zM24 50h2v9h-2zM31 50h1v3h-1zM26 55h1v4h-1zM16 59h2v1h-2zM34 85h1v2h-1zM33 86h1v1h-1z" fill="#1E6B35" stroke="#1E6B35" stroke-width=".08" stroke-linejoin="miter"/><path d="M23 3h1v1h-1zM27 3h1v1h-1zM31 3h1v1h-1zM16 4h1v1h-1zM18 4h1v1h-1zM20 4h1v1h-1zM22 4h1v1h-1zM17 5h1v1h-1zM21 5h1v1h-1zM10 6h1v1h-1zM14 6h1v1h-1zM16 6h1v1h-1zM18 6h1v1h-1zM20 6h1v1h-1zM19 7h1v1h-1zM8 8h1v1h-1zM10 8h1v1h-1zM14 8h1v1h-1zM16 8h1v1h-1zM18 8h1v1h-1zM17 9h1v1h-1zM10 10h1v1h-1zM14 10h1v1h-1zM16 10h1v1h-1zM18 10h1v1h-1zM15 11h1v1h-1zM17 11h1v3h-1zM8 12h1v1h-1zM10 12h1v1h-1zM14 12h1v1h-1zM16 12h1v1h-1zM18 12h1v1h-1zM20 12h1v1h-1zM15 13h1v1h-1zM19 13h1v7h-1zM10 14h1v1h-1zM14 14h1v1h-1zM16 14h1v1h-1zM18 14h1v1h-1zM15 15h1v1h-1zM17 15h1v3h-1zM8 16h1v1h-1zM10 16h1v1h-1zM14 16h1v1h-1zM16 16h1v1h-1zM18 16h1v1h-1zM34 16h5v1h-5zM40 16h1v1h-1zM42 16h1v1h-1zM15 17h1v1h-1zM35 17h1v3h-1zM37 17h1v1h-1zM39 17h1v1h-1zM41 17h1v1h-1zM10 18h1v1h-1zM14 18h1v1h-1zM16 18h1v1h-1zM18 18h1v1h-1zM34 18h1v1h-1zM36 18h1v1h-1zM38 18h1v1h-1zM40 18h1v1h-1zM42 18h1v1h-1zM15 19h1v1h-1zM17 19h1v3h-1zM33 19h1v3h-1zM37 19h1v3h-1zM39 19h1v1h-1zM8 20h1v1h-1zM10 20h1v1h-1zM14 20h1v1h-1zM16 20h1v1h-1zM18 20h1v1h-1zM20 20h1v1h-1zM22 20h1v1h-1zM34 20h1v1h-1zM36 20h1v1h-1zM38 20h1v1h-1zM40 20h1v1h-1zM42 20h1v1h-1zM15 21h1v1h-1zM19 21h1v1h-1zM21 21h1v1h-1zM31 21h1v3h-1zM35 21h1v1h-1zM39 21h1v1h-1zM41 21h1v1h-1zM10 22h1v1h-1zM14 22h1v1h-1zM16 22h1v1h-1zM18 22h1v1h-1zM20 22h1v1h-1zM22 22h2v1h-2zM30 22h1v1h-1zM32 22h1v1h-1zM34 22h1v1h-1zM36 22h1v1h-1zM38 22h1v1h-1zM40 22h1v1h-1zM42 22h1v1h-1zM15 23h1v1h-1zM17 23h1v1h-1zM19 23h1v1h-1zM21 23h1v3h-1zM23 23h1v1h-1zM33 23h1v3h-1zM35 23h1v1h-1zM37 23h1v1h-1zM39 23h1v1h-1zM8 24h1v1h-1zM10 24h1v1h-1zM14 24h1v1h-1zM16 24h1v1h-1zM18 24h1v1h-1zM20 24h1v1h-1zM22 24h1v1h-1zM30 24h1v1h-1zM32 24h1v1h-1zM34 24h1v1h-1zM36 24h1v1h-1zM38 24h1v1h-1zM40 24h1v1h-1zM42 24h1v1h-1zM17 25h1v1h-1zM19 25h1v1h-1zM23 25h1v1h-1zM31 25h1v1h-1zM35 25h1v1h-1zM37 25h1v1h-1zM10 26h1v1h-1zM14 26h1v1h-1zM16 26h1v1h-1zM18 26h1v1h-1zM20 26h1v1h-1zM22 26h1v1h-1zM32 26h1v1h-1zM34 26h1v1h-1zM36 26h1v1h-1zM38 26h1v1h-1zM40 26h1v1h-1zM42 26h1v1h-1zM40 28h1v1h-1zM6 61h1v1h-1zM4 63h1v1h-1zM6 63h1v1h-1zM8 63h1v1h-1zM10 63h1v1h-1zM12 63h1v1h-1zM14 63h1v1h-1zM24 63h1v1h-1zM26 63h1v1h-1zM28 63h1v1h-1zM30 63h1v1h-1zM32 63h1v1h-1zM36 63h1v1h-1zM9 64h1v1h-1zM11 64h1v1h-1zM13 64h1v3h-1zM15 64h1v1h-1zM23 64h1v1h-1zM25 64h1v3h-1zM27 64h1v1h-1zM29 64h1v1h-1zM4 65h1v1h-1zM6 65h1v1h-1zM8 65h1v1h-1zM10 65h1v1h-1zM12 65h1v1h-1zM14 65h1v1h-1zM16 65h1v1h-1zM24 65h1v1h-1zM26 65h1v1h-1zM28 65h1v1h-1zM30 65h1v1h-1zM32 65h1v1h-1zM36 65h1v1h-1zM38 65h1v1h-1zM7 66h1v1h-1zM9 66h1v1h-1zM11 66h1v1h-1zM15 66h1v3h-1zM23 66h1v2h-1zM27 66h1v1h-1zM29 66h1v1h-1zM31 66h1v1h-1zM4 67h1v1h-1zM6 67h1v1h-1zM8 67h1v1h-1zM10 67h1v1h-1zM12 67h1v1h-1zM14 67h1v1h-1zM16 67h1v1h-1zM24 67h1v1h-1zM26 67h1v1h-1zM28 67h1v1h-1zM30 67h1v1h-1zM32 67h1v1h-1zM36 67h1v1h-1zM5 68h1v1h-1zM7 68h1v1h-1zM9 68h1v3h-1zM11 68h1v1h-1zM13 68h1v3h-1zM25 68h1v1h-1zM27 68h1v1h-1zM29 68h1v3h-1zM31 68h1v1h-1zM4 69h1v1h-1zM6 69h1v1h-1zM8 69h1v1h-1zM10 69h1v1h-1zM12 69h1v1h-1zM24 69h1v1h-1zM26 69h1v1h-1zM28 69h1v1h-1zM30 69h1v1h-1zM32 69h1v1h-1zM36 69h1v1h-1zM38 69h1v1h-1zM7 70h1v1h-1zM11 70h1v4h-1zM27 70h1v7h-1zM31 70h1v1h-1zM4 71h1v1h-1zM6 71h1v1h-1zM8 71h1v1h-1zM10 71h1v1h-1zM12 71h1v1h-1zM28 71h1v1h-1zM30 71h1v1h-1zM32 71h1v1h-1zM36 71h1v1h-1zM5 72h1v1h-1zM7 72h1v1h-1zM9 72h1v2h-1zM29 72h1v3h-1zM31 72h1v1h-1zM4 73h1v1h-1zM6 73h1v1h-1zM8 73h1v1h-1zM10 73h1v1h-1zM12 73h1v1h-1zM28 73h1v1h-1zM30 73h1v1h-1zM32 73h1v1h-1zM36 73h1v1h-1zM38 73h1v1h-1zM31 74h1v1h-1zM28 75h1v1h-1zM30 75h1v1h-1zM32 75h1v1h-1zM36 75h1v1h-1zM29 76h1v3h-1zM31 76h1v1h-1zM26 77h1v1h-1zM28 77h1v1h-1zM30 77h1v1h-1zM32 77h1v1h-1zM36 77h1v1h-1zM38 77h1v1h-1zM31 78h1v1h-1zM28 79h1v1h-1zM30 79h1v1h-1zM32 79h1v1h-1zM36 79h1v1h-1zM29 80h1v1h-1zM28 81h1v1h-1zM30 81h1v1h-1zM32 81h1v1h-1zM36 81h1v1h-1zM38 81h1v1h-1zM27 82h1v1h-1zM26 83h1v1h-1zM28 83h1v1h-1zM30 83h1v1h-1zM32 83h1v1h-1zM36 83h1v1h-1zM25 84h1v1h-1zM29 84h1v1h-1zM24 85h1v1h-1zM26 85h1v1h-1zM28 85h1v1h-1zM30 85h1v1h-1zM15 86h1v1h-1zM19 86h1v1h-1zM23 86h1v1h-1z" fill="#34185A" stroke="#34185A" stroke-width=".08" stroke-linejoin="miter"/><path d="M35 3h3v1h-3zM21 27h3v3h-3zM30 27h2v3h-2zM24 28h6v1h-6zM32 28h1v3h-1zM20 29h1v2h-1zM24 29h2v1h-2zM28 29h2v1h-2zM33 29h1v2h-1zM21 30h1v1h-1zM10 40h3v2h-3zM14 40h1v2h-1zM13 41h1v1h-1zM32 48h5v1h-5zM32 49h1v1h-1zM34 49h3v1h-3zM13 59h2v2h-2zM25 59h2v2h-2zM15 60h4v2h-4zM21 60h4v2h-4zM14 61h1v1h-1zM19 61h2v1h-2zM25 61h1v2h-1zM15 62h2v1h-2zM23 62h2v1h-2zM9 86h3v1h-3z" fill="#FFF8EA" stroke="#FFF8EA" stroke-width=".08" stroke-linejoin="miter"/><path d="M27 4h2v5h-2zM24 5h3v4h-3zM29 5h2v4h-2zM22 6h2v3h-2zM21 7h1v2h-1zM16 28h2v15h-2zM19 28h1v2h-1zM34 28h1v15h-1zM36 28h1v15h-1zM14 29h2v1h-2zM38 29h1v14h-1zM15 30h1v7h-1zM19 31h1v12h-1zM33 31h1v9h-1zM20 35h1v4h-1zM39 39h1v4h-1zM7 47h2v4h-2zM10 47h1v15h-1zM12 47h1v15h-1zM27 47h1v12h-1zM29 47h2v15h-2zM13 50h1v9h-1zM8 51h1v10h-1zM26 51h1v4h-1zM31 53h1v8h-1zM27 60h1v2h-1zM32 60h1v1h-1zM16 81h10v2h-10zM16 83h9v1h-9zM16 84h7v1h-7zM18 85h2v1h-2z" fill="#3FA34D" stroke="#3FA34D" stroke-width=".08" stroke-linejoin="miter"/><path d="M32 5h3v1h-3zM38 5h4v1h-4zM32 6h1v3h-1zM32 11h1v4h-1zM14 75h1v4h-1zM14 81h1v4h-1zM5 84h4v1h-4zM12 84h2v1h-2z" fill="#E3D4B2" stroke="#E3D4B2" stroke-width=".08" stroke-linejoin="miter"/><path d="M35 5h2v1h-2zM34 6h1v2h-1zM33 8h1v1h-1zM38 8h1v1h-1zM32 9h1v1h-1zM35 9h1v1h-1zM37 9h1v1h-1zM6 29h6v4h-6zM41 29h3v11h-3zM3 30h3v13h-3zM40 30h1v12h-1zM6 33h3v10h-3zM10 33h2v3h-2zM10 36h1v4h-1zM9 37h1v4h-1zM42 40h2v3h-2zM9 42h3v1h-3zM3 47h2v14h-2zM35 47h9v1h-9zM6 48h1v12h-1zM38 48h6v12h-6zM37 49h1v4h-1zM5 50h1v11h-1zM36 50h1v11h-1zM35 54h1v7h-1zM37 57h1v4h-1zM38 60h3v1h-3zM9 80h1v1h-1zM11 80h1v1h-1zM14 80h1v1h-1zM8 81h1v1h-1zM13 81h1v1h-1zM12 82h1v2h-1zM10 84h2v1h-2z" fill="#3E4196" stroke="#3E4196" stroke-width=".08" stroke-linejoin="miter"/><path d="M33 6h1v2h-1zM39 6h3v2h-3zM35 8h1v1h-1zM37 8h1v1h-1zM40 8h2v1h-2zM41 9h1v5h-1zM35 11h1v2h-1zM37 11h1v2h-1zM40 11h1v4h-1zM33 12h2v1h-2zM38 12h2v1h-2zM33 13h1v2h-1zM39 13h1v2h-1zM34 14h5v1h-5zM6 75h8v1h-8zM5 76h3v2h-3zM13 76h1v2h-1zM8 77h2v1h-2zM11 77h2v1h-2zM5 78h2v1h-2zM9 78h1v1h-1zM11 78h1v1h-1zM5 79h1v5h-1zM6 81h1v3h-1zM9 81h1v1h-1zM11 81h1v1h-1zM7 82h1v2h-1zM13 82h1v2h-1z" fill="#F1E6CC" stroke="#F1E6CC" stroke-width=".08" stroke-linejoin="miter"/><path d="M23 12h2v1h-2zM26 12h2v7h-2zM29 12h2v1h-2zM22 13h2v1h-2zM30 13h1v7h-1zM22 14h1v1h-1zM23 15h3v4h-3zM28 15h2v7h-2zM22 16h1v2h-1zM31 16h1v1h-1zM23 19h1v1h-1zM25 19h2v1h-2zM24 20h1v2h-1zM27 20h1v3h-1zM25 21h2v2h-2zM11 36h3v4h-3zM14 37h1v2h-1zM33 50h3v4h-3zM32 51h1v2h-1zM19 67h3v2h-3zM17 68h2v7h-2zM22 68h1v2h-1zM19 69h1v1h-1zM16 70h1v8h-1zM20 70h2v5h-2zM23 70h1v5h-1zM19 71h1v7h-1zM22 71h1v4h-1zM24 72h1v2h-1zM15 73h1v1h-1zM20 75h1v3h-1zM24 75h1v2h-1zM23 76h1v2h-1zM17 77h1v1h-1zM22 77h1v1h-1z" fill="#B27A50" stroke="#B27A50" stroke-width=".08" stroke-linejoin="miter"/><path d="M24 13h2v1h-2zM28 13h2v1h-2zM17 76h2v1h-2zM21 76h2v1h-2z" fill="#5E3419" stroke="#5E3419" stroke-width=".08" stroke-linejoin="miter"/><path d="M21 14h1v3h-1zM31 15h1v1h-1zM32 16h1v1h-1zM25 23h1v4h-1zM28 23h1v4h-1zM26 24h2v3h-2zM18 63h4v3h-4zM18 66h1v1h-1zM21 66h1v1h-1zM14 73h1v1h-1zM25 73h1v3h-1zM15 74h1v1h-1z" fill="#8E5C38" stroke="#8E5C38" stroke-width=".08" stroke-linejoin="miter"/><path d="M25 14h1v1h-1zM28 14h1v1h-1zM23 44h1v1h-1zM18 75h1v1h-1zM21 75h1v1h-1z" fill="#FFFFFF" stroke="#FFFFFF" stroke-width=".08" stroke-linejoin="miter"/><path d="M21 17h1v3h-1zM32 17h1v3h-1zM14 70h1v3h-1zM25 70h1v3h-1z" fill="#9A5A2E" stroke="#9A5A2E" stroke-width=".08" stroke-linejoin="miter"/><path d="M24 19h1v1h-1zM27 19h1v1h-1zM25 20h2v1h-2zM20 69h2v1h-2zM19 70h1v1h-1zM22 70h1v1h-1z" fill="#6E0F22" stroke="#6E0F22" stroke-width=".08" stroke-linejoin="miter"/><path d="M26 32h2v1h-2zM26 35h1v1h-1zM26 39h1v1h-1zM26 42h2v1h-2zM19 47h2v1h-2zM20 50h1v1h-1zM20 54h1v1h-1zM19 57h2v1h-2z" fill="#F0617A" stroke="#F0617A" stroke-width=".08" stroke-linejoin="miter"/><path d="M23 43h1v1h-1zM22 44h1v2h-1zM24 44h1v2h-1zM23 45h1v2h-1z" fill="#95DE6B" stroke="#95DE6B" stroke-width=".08" stroke-linejoin="miter"/></g>
<path d="M66.57 46h14.86v14.86h-14.86ZM81.43 46h14.86v14.86h-14.86ZM96.29 46h14.86v14.86h-14.86ZM81.43 60.86h14.86v14.86h-14.86ZM81.43 75.71h14.86v14.86h-14.86ZM81.43 90.57h14.86v14.86h-14.86ZM81.43 105.43h14.86v14.86h-14.86ZM36.86 120.29h14.86v14.86h-14.86ZM81.43 120.29h14.86v14.86h-14.86ZM51.71 135.14h14.86v14.86h-14.86ZM66.57 135.14h14.86v14.86h-14.86Z" fill="#F1E6CC" stroke="#F1E6CC" stroke-width="10" stroke-linejoin="miter"/><path d="M66.57 46h14.86v14.86h-14.86ZM81.43 46h14.86v14.86h-14.86ZM96.29 46h14.86v14.86h-14.86ZM81.43 60.86h14.86v14.86h-14.86ZM81.43 75.71h14.86v14.86h-14.86ZM81.43 90.57h14.86v14.86h-14.86ZM81.43 105.43h14.86v14.86h-14.86ZM36.86 120.29h14.86v14.86h-14.86ZM81.43 120.29h14.86v14.86h-14.86ZM51.71 135.14h14.86v14.86h-14.86ZM66.57 135.14h14.86v14.86h-14.86Z" fill="#1F2052"/><g transform="translate(74 222) scale(5.23) translate(-6.5 -6)"><path d="M5 0h2v1h-2zM4 1h1v1h-1zM5 3h1v2h-1zM1 4h2v1h-2zM9 4h2v1h-2zM0 5h1v2h-1zM4 5h1v1h-1zM8 5h1v1h-1zM5 10h1v1h-1z" fill="#3E4196" stroke="#3E4196" stroke-width=".08" stroke-linejoin="miter"/><path d="M7 0h1v1h-1zM8 1h1v2h-1zM4 2h1v1h-1zM7 3h1v2h-1zM3 4h1v1h-1zM11 4h1v1h-1zM12 5h1v3h-1zM0 7h1v1h-1zM4 7h2v1h-2zM7 7h2v1h-2zM1 8h3v1h-3zM6 8h1v2h-1zM9 8h3v1h-3zM7 10h1v2h-1zM3 11h4v1h-4zM8 11h2v1h-2z" fill="#0E0E26" stroke="#0E0E26" stroke-width=".08" stroke-linejoin="miter"/><path d="M5 1h3v2h-3zM6 3h1v5h-1zM1 5h3v3h-3zM5 5h1v2h-1zM7 5h1v2h-1zM9 5h3v3h-3zM4 6h1v1h-1zM8 6h1v1h-1zM6 10h1v1h-1z" fill="#1F2052" stroke="#1F2052" stroke-width=".08" stroke-linejoin="miter"/></g><g transform="rotate(180 375 525)"><path d="M66.57 46h14.86v14.86h-14.86ZM81.43 46h14.86v14.86h-14.86ZM96.29 46h14.86v14.86h-14.86ZM81.43 60.86h14.86v14.86h-14.86ZM81.43 75.71h14.86v14.86h-14.86ZM81.43 90.57h14.86v14.86h-14.86ZM81.43 105.43h14.86v14.86h-14.86ZM36.86 120.29h14.86v14.86h-14.86ZM81.43 120.29h14.86v14.86h-14.86ZM51.71 135.14h14.86v14.86h-14.86ZM66.57 135.14h14.86v14.86h-14.86Z" fill="#F1E6CC" stroke="#F1E6CC" stroke-width="10" stroke-linejoin="miter"/><path d="M66.57 46h14.86v14.86h-14.86ZM81.43 46h14.86v14.86h-14.86ZM96.29 46h14.86v14.86h-14.86ZM81.43 60.86h14.86v14.86h-14.86ZM81.43 75.71h14.86v14.86h-14.86ZM81.43 90.57h14.86v14.86h-14.86ZM81.43 105.43h14.86v14.86h-14.86ZM36.86 120.29h14.86v14.86h-14.86ZM81.43 120.29h14.86v14.86h-14.86ZM51.71 135.14h14.86v14.86h-14.86ZM66.57 135.14h14.86v14.86h-14.86Z" fill="#1F2052"/><g transform="translate(74 222) scale(5.23) translate(-6.5 -6)"><path d="M5 0h2v1h-2zM4 1h1v1h-1zM5 3h1v2h-1zM1 4h2v1h-2zM9 4h2v1h-2zM0 5h1v2h-1zM4 5h1v1h-1zM8 5h1v1h-1zM5 10h1v1h-1z" fill="#3E4196" stroke="#3E4196" stroke-width=".08" stroke-linejoin="miter"/><path d="M7 0h1v1h-1zM8 1h1v2h-1zM4 2h1v1h-1zM7 3h1v2h-1zM3 4h1v1h-1zM11 4h1v1h-1zM12 5h1v3h-1zM0 7h1v1h-1zM4 7h2v1h-2zM7 7h2v1h-2zM1 8h3v1h-3zM6 8h1v2h-1zM9 8h3v1h-3zM7 10h1v2h-1zM3 11h4v1h-4zM8 11h2v1h-2z" fill="#0E0E26" stroke="#0E0E26" stroke-width=".08" stroke-linejoin="miter"/><path d="M5 1h3v2h-3zM6 3h1v5h-1zM1 5h3v3h-3zM5 5h1v2h-1zM7 5h1v2h-1zM9 5h3v3h-3zM4 6h1v1h-1zM8 6h1v1h-1zM6 10h1v1h-1z" fill="#1F2052" stroke="#1F2052" stroke-width=".08" stroke-linejoin="miter"/></g></g></g>
</svg>
